<svg xmlns="http://www.w3.org/2000/svg" xmlns:xlink="http://www.w3.org/1999/xlink" width="1366" zoomAndPan="magnify" viewBox="0 0 1024.5 576" height="768" preserveAspectRatio="xMidYMid meet" version="1.0"><path fill="#004d29" d="M 467.296875 86.75 C 493.847656 69.628906 530.277344 69.585938 556.789062 86.789062 C 582.167969 101.96875 598.234375 130.667969 598.683594 160.175781 C 619.8125 160.378906 640.945312 160.054688 662.070312 160.292969 C 673.445312 159.40625 684.171875 168.546875 684.816406 179.964844 C 699.144531 280.066406 713.4375 380.207031 727.480469 480.347656 C 730.433594 493.140625 719.304688 506.453125 706.109375 505.523438 C 576.660156 505.730469 447.175781 505.6875 317.6875 505.5625 C 304.574219 506.414062 293.523438 493.257812 296.277344 480.511719 C 310.484375 380.414062 324.773438 280.269531 339.144531 180.210938 C 339.875 168.875 350.273438 159.484375 361.691406 160.292969 C 382.90625 160.011719 404.113281 160.410156 425.285156 160.253906 C 425.851562 130.707031 441.832031 101.96875 467.296875 86.75 Z M 468.144531 160.089844 C 497.40625 160.410156 526.632812 160.253906 555.894531 160.089844 C 554.726562 137.257812 535.617188 116.375 512.015625 117.066406 C 488.46875 116.375 469.28125 137.226562 468.144531 160.089844 Z M 468.144531 160.089844 " fill-opacity="1" fill-rule="nonzero"/></svg>