<svg xmlns="http://www.w3.org/2000/svg" xmlns:xlink="http://www.w3.org/1999/xlink" width="1366" zoomAndPan="magnify" viewBox="0 0 1024.5 576" height="768" preserveAspectRatio="xMidYMid meet" version="1.0"><defs><clipPath id="14b6085543"><path d="M 363.375 139.371094 L 660.976562 139.371094 L 660.976562 436.976562 L 363.375 436.976562 Z M 363.375 139.371094 " clip-rule="nonzero"/></clipPath></defs><g clip-path="url(#14b6085543)"><path fill="#2b2828" d="M 512 139.371094 C 429.902344 139.371094 363.375 205.902344 363.375 288 C 363.375 370.097656 429.902344 436.625 512 436.625 C 594.097656 436.625 660.625 370.097656 660.625 288 C 660.496094 205.902344 593.96875 139.371094 512 139.371094 Z M 512 392.746094 C 495.015625 392.746094 430.414062 322.613281 430.414062 271.015625 C 430.414062 225.71875 466.703125 187.757812 512 187.757812 C 557.296875 187.757812 593.582031 225.71875 593.582031 271.015625 C 593.582031 322.484375 528.984375 392.746094 512 392.746094 Z M 512 392.746094 " fill-opacity="1" fill-rule="nonzero"/></g><path fill="#2b2828" d="M 512 219.542969 C 508.269531 219.542969 504.664062 219.925781 501.320312 220.699219 C 503.378906 221.984375 505.308594 223.789062 506.851562 225.847656 C 513.15625 234.597656 511.097656 246.691406 502.347656 253 C 493.597656 259.304688 481.503906 257.246094 475.195312 248.496094 C 473.265625 245.792969 472.238281 242.832031 471.851562 239.746094 C 465.933594 247.722656 462.457031 257.375 462.457031 267.925781 C 462.457031 294.5625 484.589844 316.179688 511.871094 316.179688 C 539.152344 316.179688 561.285156 294.5625 561.285156 267.925781 C 561.414062 241.160156 539.28125 219.542969 512 219.542969 Z M 512 219.542969 " fill-opacity="1" fill-rule="nonzero"/></svg>