<svg xmlns="http://www.w3.org/2000/svg" xmlns:xlink="http://www.w3.org/1999/xlink" width="1366" zoomAndPan="magnify" viewBox="0 0 1024.5 576" height="768" preserveAspectRatio="xMidYMid meet" version="1.0"><defs><clipPath id="424cb75705"><path d="M 318.890625 103.578125 L 675 103.578125 L 675 372 L 318.890625 372 Z M 318.890625 103.578125 " clip-rule="nonzero"/></clipPath><clipPath id="20f7d52670"><path d="M 441.570312 392.601562 L 521.339844 392.601562 L 521.339844 472.316406 L 441.570312 472.316406 Z M 441.570312 392.601562 " clip-rule="nonzero"/></clipPath><clipPath id="a6491fac97"><path d="M 574.441406 392.601562 L 654.207031 392.601562 L 654.207031 472.316406 L 574.441406 472.316406 Z M 574.441406 392.601562 " clip-rule="nonzero"/></clipPath><clipPath id="1fbc60b196"><path d="M 425.097656 141.164062 L 704.949219 141.164062 L 704.949219 303.730469 L 425.097656 303.730469 Z M 425.097656 141.164062 " clip-rule="nonzero"/></clipPath></defs><g clip-path="url(#424cb75705)"><path fill="#bc8741" d="M 666.191406 353.945312 L 450.78125 353.945312 C 436.890625 353.945312 425.585938 342.648438 425.585938 328.753906 C 425.585938 318.960938 431.335938 309.976562 440.230469 305.867188 C 440.371094 305.804688 440.503906 305.726562 440.636719 305.652344 C 440.707031 305.617188 440.777344 305.582031 440.84375 305.546875 C 441.03125 305.441406 441.207031 305.328125 441.382812 305.214844 C 441.445312 305.171875 441.511719 305.132812 441.574219 305.085938 C 441.75 304.964844 441.914062 304.835938 442.082031 304.699219 C 442.132812 304.65625 442.1875 304.613281 442.238281 304.570312 C 442.40625 304.429688 442.5625 304.277344 442.714844 304.125 C 442.761719 304.082031 442.804688 304.039062 442.847656 303.996094 C 443 303.835938 443.140625 303.671875 443.28125 303.503906 C 443.320312 303.457031 443.359375 303.410156 443.398438 303.363281 C 443.527344 303.195312 443.652344 303.023438 443.769531 302.847656 C 443.808594 302.789062 443.847656 302.734375 443.886719 302.675781 C 443.996094 302.507812 444.09375 302.335938 444.191406 302.160156 C 444.230469 302.085938 444.269531 302.011719 444.308594 301.941406 C 444.390625 301.773438 444.46875 301.609375 444.539062 301.441406 C 444.582031 301.347656 444.621094 301.257812 444.660156 301.164062 C 444.71875 301.007812 444.773438 300.851562 444.824219 300.695312 C 444.863281 300.582031 444.898438 300.46875 444.929688 300.355469 C 444.972656 300.210938 445.007812 300.066406 445.039062 299.917969 C 445.070312 299.789062 445.097656 299.660156 445.125 299.53125 C 445.148438 299.390625 445.167969 299.25 445.183594 299.109375 C 445.203125 298.972656 445.222656 298.832031 445.234375 298.691406 C 445.242188 298.554688 445.25 298.414062 445.253906 298.277344 C 445.257812 298.132812 445.261719 297.992188 445.261719 297.851562 C 445.257812 297.707031 445.25 297.566406 445.238281 297.421875 C 445.230469 297.28125 445.21875 297.144531 445.203125 297.003906 C 445.1875 296.855469 445.164062 296.710938 445.136719 296.566406 C 445.113281 296.425781 445.09375 296.289062 445.0625 296.148438 C 445.03125 296.011719 444.992188 295.871094 444.953125 295.730469 C 444.925781 295.625 444.90625 295.519531 444.875 295.414062 L 387.121094 109.761719 C 385.992188 106.136719 382.636719 103.667969 378.839844 103.667969 L 327.558594 103.667969 C 322.769531 103.667969 318.890625 107.546875 318.890625 112.335938 C 318.890625 117.125 322.769531 121.007812 327.558594 121.007812 L 372.457031 121.007812 L 426.269531 293.996094 C 415.128906 301.875 408.246094 314.828125 408.246094 328.753906 C 408.246094 351.902344 426.835938 370.777344 449.867188 371.265625 C 450.019531 371.273438 450.171875 371.289062 450.328125 371.289062 L 666.191406 371.289062 C 670.980469 371.289062 674.863281 367.40625 674.863281 362.617188 C 674.863281 357.828125 670.980469 353.945312 666.191406 353.945312 " fill-opacity="1" fill-rule="nonzero"/></g><g clip-path="url(#20f7d52670)"><path fill="#bc8741" d="M 481.425781 454.976562 C 469.058594 454.976562 458.996094 444.914062 458.996094 432.546875 C 458.996094 420.175781 469.058594 410.113281 481.425781 410.113281 C 493.796875 410.113281 503.859375 420.175781 503.859375 432.546875 C 503.859375 444.914062 493.796875 454.976562 481.425781 454.976562 Z M 481.425781 392.773438 C 459.496094 392.773438 441.65625 410.613281 441.65625 432.546875 C 441.65625 454.476562 459.496094 472.316406 481.425781 472.316406 C 503.359375 472.316406 521.199219 454.476562 521.199219 432.546875 C 521.199219 410.613281 503.359375 392.773438 481.425781 392.773438 " fill-opacity="1" fill-rule="nonzero"/></g><g clip-path="url(#a6491fac97)"><path fill="#bc8741" d="M 614.414062 454.976562 C 602.046875 454.976562 591.984375 444.914062 591.984375 432.546875 C 591.984375 420.175781 602.046875 410.113281 614.414062 410.113281 C 626.78125 410.113281 636.84375 420.175781 636.84375 432.546875 C 636.84375 444.914062 626.78125 454.976562 614.414062 454.976562 Z M 614.414062 392.773438 C 592.484375 392.773438 574.644531 410.613281 574.644531 432.546875 C 574.644531 454.476562 592.484375 472.316406 614.414062 472.316406 C 636.34375 472.316406 654.183594 454.476562 654.183594 432.546875 C 654.183594 410.613281 636.34375 392.773438 614.414062 392.773438 " fill-opacity="1" fill-rule="nonzero"/></g><g clip-path="url(#1fbc60b196)"><path fill="#bc8741" d="M 679.160156 189.398438 L 641.136719 189.398438 L 647.699219 158.535156 L 685.71875 158.535156 Z M 668.796875 238.164062 L 630.777344 238.164062 L 637.453125 206.738281 L 675.476562 206.738281 Z M 658.585938 286.222656 L 620.5625 286.222656 L 627.089844 255.503906 L 665.113281 255.503906 Z M 613.050781 238.164062 L 575.023438 238.164062 L 581.699219 206.738281 L 619.726562 206.738281 Z M 602.835938 286.222656 L 564.808594 286.222656 L 571.339844 255.503906 L 609.363281 255.503906 Z M 557.296875 238.164062 L 519.273438 238.164062 L 525.949219 206.738281 L 563.972656 206.738281 Z M 547.085938 286.222656 L 509.058594 286.222656 L 515.585938 255.503906 L 553.613281 255.503906 Z M 474.917969 189.398438 L 480.632812 158.535156 L 518.464844 158.535156 L 511.90625 189.398438 Z M 536.191406 158.535156 L 574.21875 158.535156 L 567.660156 189.398438 L 529.632812 189.398438 Z M 591.945312 158.535156 L 629.96875 158.535156 L 623.410156 189.398438 L 585.386719 189.398438 Z M 703.164062 144.40625 C 701.519531 142.371094 699.042969 141.191406 696.429688 141.191406 L 640.765625 141.191406 C 640.738281 141.191406 640.714844 141.191406 640.683594 141.191406 L 584.992188 141.191406 C 584.984375 141.191406 584.972656 141.191406 584.964844 141.191406 L 529.269531 141.191406 C 529.238281 141.191406 529.207031 141.191406 529.175781 141.191406 L 473.253906 141.191406 C 473.25 141.191406 473.246094 141.191406 473.242188 141.191406 L 433.847656 141.191406 C 429.058594 141.191406 425.179688 145.074219 425.179688 149.863281 C 425.179688 154.652344 429.058594 158.535156 433.847656 158.535156 L 462.996094 158.535156 L 457.285156 189.398438 L 446.238281 189.398438 C 441.449219 189.398438 437.566406 193.28125 437.566406 198.070312 C 437.566406 202.859375 441.449219 206.738281 446.238281 206.738281 L 464.46875 206.738281 C 464.480469 206.738281 464.492188 206.742188 464.507812 206.742188 C 464.519531 206.742188 464.53125 206.738281 464.542969 206.738281 L 508.222656 206.738281 L 501.542969 238.164062 L 458.914062 238.164062 C 454.125 238.164062 450.242188 242.042969 450.242188 246.832031 C 450.242188 251.621094 454.125 255.503906 458.914062 255.503906 L 497.859375 255.503906 L 491.332031 286.222656 L 471.335938 286.222656 C 466.546875 286.222656 462.664062 290.105469 462.664062 294.890625 C 462.664062 299.679688 466.546875 303.5625 471.335938 303.5625 L 498.328125 303.5625 C 498.339844 303.5625 498.351562 303.5625 498.359375 303.5625 C 498.375 303.5625 498.386719 303.5625 498.402344 303.5625 L 554.082031 303.5625 C 554.089844 303.5625 554.101562 303.5625 554.113281 303.5625 C 554.125 303.5625 554.140625 303.5625 554.152344 303.5625 L 609.832031 303.5625 C 609.84375 303.5625 609.855469 303.5625 609.867188 303.5625 C 609.878906 303.5625 609.890625 303.5625 609.90625 303.5625 L 665.609375 303.5625 C 669.703125 303.5625 673.238281 300.699219 674.089844 296.695312 L 694.664062 199.859375 C 694.671875 199.835938 694.675781 199.808594 694.679688 199.785156 L 704.90625 151.664062 C 705.453125 149.105469 704.8125 146.4375 703.164062 144.40625 " fill-opacity="1" fill-rule="nonzero"/></g></svg>