<svg xmlns="http://www.w3.org/2000/svg" xmlns:xlink="http://www.w3.org/1999/xlink" width="768" zoomAndPan="magnify" viewBox="0 0 576 576" height="768" preserveAspectRatio="xMidYMid meet" version="1.0"><path fill="#bc8741" d="M 288 0 C 283.285156 0 278.574219 0.117188 273.867188 0.347656 C 269.160156 0.578125 264.460938 0.925781 259.769531 1.386719 C 255.082031 1.847656 250.402344 2.425781 245.742188 3.117188 C 241.078125 3.808594 236.4375 4.613281 231.8125 5.535156 C 227.191406 6.453125 222.59375 7.484375 218.023438 8.632812 C 213.449219 9.777344 208.910156 11.03125 204.398438 12.402344 C 199.886719 13.769531 195.414062 15.246094 190.976562 16.835938 C 186.539062 18.421875 182.140625 20.117188 177.789062 21.921875 C 173.433594 23.726562 169.125 25.636719 164.863281 27.652344 C 160.601562 29.667969 156.394531 31.785156 152.238281 34.007812 C 148.082031 36.230469 143.980469 38.550781 139.9375 40.972656 C 135.894531 43.398438 131.914062 45.917969 127.996094 48.535156 C 124.078125 51.15625 120.222656 53.867188 116.4375 56.675781 C 112.652344 59.484375 108.9375 62.382812 105.292969 65.371094 C 101.652344 68.363281 98.082031 71.441406 94.589844 74.605469 C 91.097656 77.769531 87.6875 81.019531 84.351562 84.351562 C 81.019531 87.6875 77.769531 91.097656 74.605469 94.589844 C 71.441406 98.082031 68.363281 101.652344 65.371094 105.292969 C 62.382812 108.9375 59.484375 112.652344 56.675781 116.4375 C 53.867188 120.222656 51.15625 124.078125 48.535156 127.996094 C 45.917969 131.914062 43.398438 135.894531 40.972656 139.9375 C 38.550781 143.980469 36.230469 148.082031 34.007812 152.238281 C 31.785156 156.394531 29.667969 160.601562 27.652344 164.863281 C 25.636719 169.125 23.726562 173.433594 21.921875 177.789062 C 20.117188 182.140625 18.421875 186.539062 16.835938 190.976562 C 15.246094 195.414062 13.769531 199.886719 12.402344 204.398438 C 11.03125 208.910156 9.777344 213.449219 8.632812 218.023438 C 7.484375 222.59375 6.453125 227.191406 5.535156 231.8125 C 4.613281 236.4375 3.808594 241.078125 3.117188 245.742188 C 2.425781 250.402344 1.847656 255.082031 1.386719 259.769531 C 0.925781 264.460938 0.578125 269.160156 0.347656 273.867188 C 0.117188 278.574219 0 283.285156 0 288 C 0 292.714844 0.117188 297.425781 0.347656 302.132812 C 0.578125 306.839844 0.925781 311.539062 1.386719 316.230469 C 1.847656 320.917969 2.425781 325.597656 3.117188 330.257812 C 3.808594 334.921875 4.613281 339.5625 5.535156 344.1875 C 6.453125 348.808594 7.484375 353.40625 8.632812 357.976562 C 9.777344 362.550781 11.03125 367.089844 12.402344 371.601562 C 13.769531 376.113281 15.246094 380.585938 16.835938 385.023438 C 18.421875 389.460938 20.117188 393.859375 21.921875 398.210938 C 23.726562 402.566406 25.636719 406.875 27.652344 411.136719 C 29.667969 415.398438 31.785156 419.605469 34.007812 423.761719 C 36.230469 427.917969 38.550781 432.019531 40.972656 436.0625 C 43.398438 440.105469 45.917969 444.085938 48.535156 448.003906 C 51.15625 451.921875 53.867188 455.777344 56.675781 459.5625 C 59.484375 463.347656 62.382812 467.0625 65.371094 470.707031 C 68.363281 474.347656 71.441406 477.917969 74.605469 481.410156 C 77.769531 484.902344 81.019531 488.3125 84.351562 491.648438 C 87.6875 494.980469 91.097656 498.230469 94.589844 501.394531 C 98.082031 504.558594 101.652344 507.636719 105.292969 510.628906 C 108.9375 513.617188 112.652344 516.515625 116.4375 519.324219 C 120.222656 522.132812 124.078125 524.84375 127.996094 527.464844 C 131.914062 530.082031 135.894531 532.601562 139.9375 535.027344 C 143.980469 537.449219 148.082031 539.769531 152.238281 541.992188 C 156.394531 544.214844 160.601562 546.332031 164.863281 548.347656 C 169.125 550.363281 173.433594 552.273438 177.789062 554.078125 C 182.140625 555.882812 186.539062 557.578125 190.976562 559.164062 C 195.414062 560.753906 199.886719 562.230469 204.398438 563.597656 C 208.910156 564.96875 213.449219 566.222656 218.023438 567.367188 C 222.59375 568.515625 227.191406 569.546875 231.8125 570.464844 C 236.4375 571.386719 241.078125 572.191406 245.742188 572.882812 C 250.402344 573.574219 255.082031 574.152344 259.769531 574.613281 C 264.460938 575.074219 269.160156 575.421875 273.867188 575.652344 C 278.574219 575.882812 283.285156 576 288 576 C 292.714844 576 297.421875 575.882812 302.132812 575.652344 C 306.839844 575.421875 311.539062 575.074219 316.230469 574.613281 C 320.917969 574.152344 325.597656 573.574219 330.257812 572.882812 C 334.921875 572.191406 339.5625 571.386719 344.1875 570.464844 C 348.808594 569.546875 353.40625 568.515625 357.976562 567.367188 C 362.550781 566.222656 367.089844 564.96875 371.601562 563.597656 C 376.113281 562.230469 380.585938 560.753906 385.023438 559.164062 C 389.460938 557.578125 393.859375 555.882812 398.210938 554.078125 C 402.566406 552.273438 406.875 550.363281 411.136719 548.347656 C 415.398438 546.332031 419.605469 544.214844 423.761719 541.992188 C 427.917969 539.769531 432.019531 537.449219 436.0625 535.027344 C 440.105469 532.601562 444.085938 530.082031 448.003906 527.464844 C 451.921875 524.84375 455.777344 522.132812 459.5625 519.324219 C 463.347656 516.515625 467.0625 513.617188 470.707031 510.628906 C 474.347656 507.636719 477.917969 504.558594 481.410156 501.394531 C 484.902344 498.230469 488.3125 494.980469 491.648438 491.648438 C 494.980469 488.3125 498.230469 484.902344 501.394531 481.410156 C 504.558594 477.917969 507.636719 474.347656 510.628906 470.707031 C 513.617188 467.0625 516.515625 463.347656 519.324219 459.5625 C 522.132812 455.777344 524.84375 451.921875 527.464844 448.003906 C 530.082031 444.085938 532.601562 440.105469 535.027344 436.0625 C 537.449219 432.019531 539.769531 427.917969 541.992188 423.761719 C 544.214844 419.605469 546.332031 415.398438 548.347656 411.136719 C 550.363281 406.875 552.273438 402.566406 554.078125 398.210938 C 555.882812 393.859375 557.578125 389.460938 559.164062 385.023438 C 560.753906 380.585938 562.230469 376.113281 563.597656 371.601562 C 564.96875 367.089844 566.222656 362.550781 567.367188 357.976562 C 568.515625 353.40625 569.546875 348.808594 570.464844 344.1875 C 571.386719 339.5625 572.191406 334.921875 572.882812 330.257812 C 573.574219 325.597656 574.152344 320.917969 574.613281 316.230469 C 575.074219 311.539062 575.421875 306.839844 575.652344 302.132812 C 575.882812 297.425781 576 292.714844 576 288 C 576 283.285156 575.882812 278.578125 575.652344 273.867188 C 575.417969 269.160156 575.074219 264.460938 574.609375 259.773438 C 574.148438 255.082031 573.570312 250.40625 572.878906 245.742188 C 572.1875 241.082031 571.378906 236.4375 570.460938 231.816406 C 569.539062 227.195312 568.507812 222.597656 567.363281 218.023438 C 566.214844 213.453125 564.960938 208.914062 563.589844 204.402344 C 562.222656 199.890625 560.742188 195.417969 559.15625 190.980469 C 557.566406 186.542969 555.871094 182.148438 554.066406 177.792969 C 552.261719 173.4375 550.355469 169.132812 548.339844 164.871094 C 546.324219 160.609375 544.203125 156.402344 541.984375 152.246094 C 539.761719 148.089844 537.4375 143.988281 535.015625 139.945312 C 532.589844 135.902344 530.070312 131.921875 527.453125 128.003906 C 524.832031 124.085938 522.121094 120.234375 519.3125 116.449219 C 516.503906 112.664062 513.605469 108.949219 510.617188 105.304688 C 507.625 101.660156 504.546875 98.09375 501.382812 94.601562 C 498.21875 91.109375 494.96875 87.695312 491.636719 84.363281 C 488.304688 81.03125 484.890625 77.78125 481.398438 74.617188 C 477.90625 71.453125 474.339844 68.375 470.695312 65.382812 C 467.050781 62.394531 463.335938 59.496094 459.550781 56.6875 C 455.765625 53.878906 451.914062 51.167969 447.996094 48.546875 C 444.078125 45.929688 440.097656 43.410156 436.054688 40.984375 C 432.011719 38.5625 427.910156 36.238281 423.753906 34.015625 C 419.597656 31.796875 415.390625 29.675781 411.128906 27.660156 C 406.867188 25.644531 402.5625 23.734375 398.207031 21.933594 C 393.851562 20.128906 389.457031 18.433594 385.019531 16.84375 C 380.582031 15.257812 376.109375 13.777344 371.597656 12.410156 C 367.085938 11.039062 362.546875 9.785156 357.976562 8.636719 C 353.402344 7.492188 348.804688 6.460938 344.183594 5.539062 C 339.5625 4.621094 334.917969 3.8125 330.257812 3.121094 C 325.59375 2.429688 320.917969 1.851562 316.226562 1.390625 C 311.539062 0.925781 306.839844 0.582031 302.132812 0.347656 C 297.421875 0.117188 292.714844 0 288 0 Z M 288 108 C 289.703125 108 291.40625 108.046875 293.105469 108.144531 C 294.808594 108.242188 296.503906 108.390625 298.199219 108.585938 C 299.890625 108.78125 301.574219 109.027344 303.253906 109.320312 C 304.933594 109.613281 306.601562 109.953125 308.257812 110.34375 C 309.917969 110.734375 311.5625 111.171875 313.195312 111.65625 C 314.832031 112.140625 316.449219 112.675781 318.050781 113.253906 C 319.652344 113.832031 321.238281 114.457031 322.804688 115.125 C 324.371094 115.796875 325.914062 116.511719 327.441406 117.273438 C 328.964844 118.03125 330.46875 118.835938 331.945312 119.683594 C 333.425781 120.527344 334.878906 121.417969 336.304688 122.347656 C 337.730469 123.277344 339.128906 124.25 340.5 125.261719 C 341.871094 126.273438 343.210938 127.324219 344.523438 128.414062 C 345.832031 129.503906 347.109375 130.628906 348.355469 131.792969 C 349.597656 132.957031 350.808594 134.15625 351.984375 135.386719 C 353.160156 136.621094 354.300781 137.886719 355.402344 139.1875 C 356.503906 140.484375 357.566406 141.816406 358.59375 143.175781 C 359.617188 144.539062 360.605469 145.925781 361.550781 147.34375 C 362.492188 148.761719 363.398438 150.207031 364.257812 151.675781 C 365.121094 153.144531 365.9375 154.640625 366.710938 156.15625 C 367.488281 157.675781 368.21875 159.210938 368.902344 160.773438 C 369.589844 162.332031 370.230469 163.910156 370.824219 165.507812 C 371.417969 167.101562 371.96875 168.714844 372.46875 170.34375 C 372.96875 171.972656 373.425781 173.613281 373.832031 175.269531 C 374.238281 176.921875 374.59375 178.589844 374.90625 180.265625 C 375.214844 181.9375 375.476562 183.621094 375.6875 185.3125 C 375.902344 187.003906 376.066406 188.699219 376.179688 190.398438 C 376.292969 192.097656 376.359375 193.800781 376.375 195.503906 C 376.390625 197.207031 376.359375 198.910156 376.273438 200.613281 C 376.191406 202.3125 376.0625 204.011719 375.878906 205.707031 C 375.699219 207.398438 375.46875 209.085938 375.191406 210.769531 C 374.914062 212.449219 374.585938 214.121094 374.210938 215.78125 C 373.835938 217.445312 373.414062 219.09375 372.941406 220.730469 C 372.472656 222.371094 371.953125 223.992188 371.390625 225.601562 C 370.824219 227.207031 370.214844 228.796875 369.558594 230.371094 C 368.902344 231.941406 368.203125 233.492188 367.453125 235.027344 C 366.707031 236.558594 365.917969 238.066406 365.085938 239.550781 C 364.25 241.039062 363.375 242.5 362.457031 243.933594 C 361.539062 245.371094 360.582031 246.777344 359.582031 248.15625 C 358.582031 249.535156 357.542969 250.886719 356.464844 252.207031 C 355.386719 253.527344 354.273438 254.8125 353.121094 256.066406 C 351.96875 257.324219 350.78125 258.542969 349.558594 259.730469 C 348.335938 260.917969 347.078125 262.066406 345.789062 263.179688 C 344.5 264.296875 343.179688 265.371094 341.828125 266.40625 C 340.476562 267.445312 339.097656 268.441406 337.6875 269.402344 C 336.277344 270.359375 334.84375 271.273438 333.378906 272.148438 C 331.917969 273.023438 330.433594 273.855469 328.921875 274.644531 C 327.410156 275.429688 325.878906 276.175781 324.324219 276.875 C 322.773438 277.574219 321.199219 278.230469 319.609375 278.839844 C 318.015625 279.445312 316.410156 280.007812 314.785156 280.523438 C 313.160156 281.039062 311.523438 281.507812 309.875 281.929688 C 308.222656 282.351562 306.5625 282.722656 304.886719 283.050781 C 303.214844 283.375 301.535156 283.648438 299.847656 283.878906 C 298.160156 284.105469 296.464844 284.285156 294.765625 284.414062 C 293.066406 284.542969 291.367188 284.625 289.664062 284.65625 C 287.957031 284.6875 286.253906 284.667969 284.554688 284.601562 C 282.851562 284.535156 281.152344 284.417969 279.457031 284.25 C 277.761719 284.085938 276.070312 283.871094 274.386719 283.609375 C 272.703125 283.34375 271.03125 283.03125 269.363281 282.671875 C 267.699219 282.3125 266.046875 281.902344 264.402344 281.449219 C 262.761719 280.992188 261.136719 280.488281 259.523438 279.9375 C 257.910156 279.390625 256.316406 278.792969 254.738281 278.148438 C 253.160156 277.507812 251.601562 276.820312 250.0625 276.085938 C 248.523438 275.355469 247.007812 274.578125 245.515625 273.757812 C 244.023438 272.9375 242.554688 272.074219 241.109375 271.171875 C 166.949219 224.191406 199.078125 108.898438 288 108 Z M 391.589844 468 L 184.410156 468 C 183.339844 467.996094 182.273438 467.96875 181.207031 467.914062 C 180.140625 467.859375 179.074219 467.78125 178.011719 467.675781 C 176.949219 467.566406 175.890625 467.433594 174.832031 467.277344 C 173.777344 467.117188 172.726562 466.933594 171.679688 466.722656 C 170.628906 466.511719 169.589844 466.277344 168.554688 466.015625 C 167.515625 465.753906 166.488281 465.46875 165.464844 465.15625 C 164.445312 464.847656 163.429688 464.507812 162.425781 464.148438 C 161.421875 463.789062 160.425781 463.402344 159.4375 462.992188 C 158.453125 462.582031 157.476562 462.148438 156.511719 461.6875 C 155.546875 461.230469 154.59375 460.75 153.652344 460.246094 C 152.710938 459.742188 151.78125 459.214844 150.863281 458.664062 C 149.949219 458.113281 149.046875 457.539062 148.160156 456.945312 C 147.273438 456.351562 146.398438 455.738281 145.542969 455.097656 C 144.683594 454.460938 143.84375 453.804688 143.019531 453.125 C 142.195312 452.449219 141.386719 451.75 140.59375 451.03125 C 139.804688 450.3125 139.03125 449.578125 138.277344 448.820312 C 137.519531 448.066406 136.785156 447.289062 136.066406 446.5 C 135.351562 445.707031 134.652344 444.898438 133.976562 444.070312 C 133.300781 443.246094 132.644531 442.402344 132.007812 441.546875 C 131.371094 440.6875 130.757812 439.8125 130.164062 438.925781 C 129.570312 438.035156 129 437.132812 128.449219 436.21875 C 127.902344 435.300781 127.375 434.371094 126.871094 433.429688 C 126.367188 432.488281 125.886719 431.535156 125.433594 430.566406 C 124.976562 429.601562 124.542969 428.625 124.132812 427.636719 C 123.726562 426.652344 123.339844 425.65625 122.980469 424.648438 C 122.621094 423.644531 122.285156 422.628906 121.976562 421.605469 C 121.667969 420.585938 121.382812 419.554688 121.121094 418.519531 C 120.863281 417.484375 120.628906 416.441406 120.417969 415.394531 C 120.210938 414.347656 120.027344 413.292969 119.871094 412.238281 C 119.714844 411.179688 119.582031 410.121094 119.476562 409.058594 C 119.371094 407.996094 119.292969 406.929688 119.238281 405.863281 C 119.1875 404.796875 119.160156 403.726562 119.160156 402.660156 C 119.160156 347.308594 159.929688 299.519531 218.429688 278.011719 C 219.632812 279.027344 220.859375 280.019531 222.105469 280.984375 C 223.351562 281.945312 224.617188 282.882812 225.90625 283.792969 C 227.195312 284.699219 228.5 285.582031 229.828125 286.429688 C 231.152344 287.28125 232.5 288.105469 233.859375 288.894531 C 235.222656 289.6875 236.601562 290.449219 237.996094 291.183594 C 239.394531 291.914062 240.804688 292.613281 242.230469 293.285156 C 243.660156 293.953125 245.097656 294.589844 246.554688 295.199219 C 248.007812 295.804688 249.476562 296.378906 250.957031 296.921875 C 252.433594 297.460938 253.925781 297.972656 255.429688 298.449219 C 256.929688 298.925781 258.441406 299.367188 259.964844 299.777344 C 261.484375 300.1875 263.015625 300.566406 264.554688 300.910156 C 266.089844 301.25 267.636719 301.5625 269.1875 301.835938 C 270.738281 302.109375 272.296875 302.351562 273.859375 302.558594 C 275.421875 302.765625 276.988281 302.9375 278.558594 303.078125 C 280.128906 303.214844 281.699219 303.320312 283.273438 303.386719 C 284.847656 303.457031 286.425781 303.492188 288 303.492188 C 289.574219 303.492188 291.152344 303.457031 292.726562 303.386719 C 294.300781 303.320312 295.871094 303.214844 297.441406 303.078125 C 299.011719 302.9375 300.578125 302.765625 302.140625 302.558594 C 303.703125 302.351562 305.261719 302.109375 306.8125 301.835938 C 308.363281 301.5625 309.910156 301.25 311.445312 300.910156 C 312.984375 300.566406 314.515625 300.1875 316.035156 299.777344 C 317.558594 299.367188 319.070312 298.925781 320.570312 298.449219 C 322.074219 297.972656 323.566406 297.460938 325.042969 296.921875 C 326.523438 296.378906 327.992188 295.804688 329.445312 295.199219 C 330.902344 294.589844 332.339844 293.953125 333.769531 293.285156 C 335.195312 292.613281 336.605469 291.914062 338.003906 291.183594 C 339.398438 290.449219 340.777344 289.6875 342.140625 288.894531 C 343.5 288.105469 344.847656 287.28125 346.171875 286.429688 C 347.5 285.582031 348.804688 284.699219 350.09375 283.792969 C 351.382812 282.882812 352.648438 281.945312 353.894531 280.984375 C 355.140625 280.019531 356.367188 279.027344 357.570312 278.011719 C 416.070312 299.519531 456.839844 347.308594 456.839844 402.660156 C 456.839844 403.726562 456.8125 404.796875 456.761719 405.863281 C 456.707031 406.929688 456.628906 407.996094 456.523438 409.058594 C 456.417969 410.121094 456.285156 411.179688 456.128906 412.238281 C 455.972656 413.292969 455.789062 414.347656 455.582031 415.394531 C 455.371094 416.441406 455.136719 417.484375 454.878906 418.519531 C 454.617188 419.554688 454.332031 420.585938 454.023438 421.605469 C 453.714844 422.628906 453.378906 423.644531 453.019531 424.648438 C 452.660156 425.65625 452.273438 426.652344 451.867188 427.636719 C 451.457031 428.625 451.023438 429.601562 450.566406 430.566406 C 450.109375 431.535156 449.632812 432.488281 449.128906 433.429688 C 448.625 434.371094 448.097656 435.300781 447.550781 436.21875 C 447 437.132812 446.429688 438.035156 445.835938 438.925781 C 445.242188 439.8125 444.628906 440.6875 443.992188 441.546875 C 443.355469 442.402344 442.699219 443.246094 442.023438 444.070312 C 441.347656 444.898438 440.648438 445.707031 439.933594 446.5 C 439.214844 447.289062 438.480469 448.066406 437.722656 448.820312 C 436.96875 449.578125 436.195312 450.3125 435.40625 451.03125 C 434.613281 451.75 433.804688 452.449219 432.980469 453.125 C 432.15625 453.804688 431.316406 454.460938 430.457031 455.097656 C 429.601562 455.738281 428.726562 456.351562 427.839844 456.945312 C 426.953125 457.539062 426.050781 458.113281 425.132812 458.664062 C 424.21875 459.214844 423.289062 459.742188 422.347656 460.246094 C 421.40625 460.75 420.453125 461.230469 419.488281 461.6875 C 418.523438 462.148438 417.546875 462.582031 416.5625 462.992188 C 415.574219 463.402344 414.578125 463.789062 413.574219 464.148438 C 412.570312 464.507812 411.554688 464.847656 410.535156 465.15625 C 409.511719 465.46875 408.484375 465.753906 407.445312 466.015625 C 406.410156 466.277344 405.371094 466.511719 404.320312 466.722656 C 403.273438 466.933594 402.222656 467.117188 401.167969 467.277344 C 400.109375 467.433594 399.050781 467.566406 397.988281 467.675781 C 396.925781 467.78125 395.859375 467.859375 394.792969 467.914062 C 393.726562 467.96875 392.660156 467.996094 391.589844 468 Z M 391.589844 468 " fill-opacity="1" fill-rule="nonzero"/></svg>