<svg xmlns="http://www.w3.org/2000/svg" xmlns:xlink="http://www.w3.org/1999/xlink" width="1366" zoomAndPan="magnify" viewBox="0 0 1024.5 576" height="768" preserveAspectRatio="xMidYMid meet" version="1.0"><defs><clipPath id="a123b1f2ea"><path d="M 381 0.140625 L 643 0.140625 L 643 262 L 381 262 Z M 381 0.140625 " clip-rule="nonzero"/></clipPath><clipPath id="a07dfdb246"><path d="M 522 288 L 773.652344 288 L 773.652344 575.859375 L 522 575.859375 Z M 522 288 " clip-rule="nonzero"/></clipPath><clipPath id="623bd08a67"><path d="M 250.40625 288 L 502 288 L 502 575.859375 L 250.40625 575.859375 Z M 250.40625 288 " clip-rule="nonzero"/></clipPath></defs><g clip-path="url(#a123b1f2ea)"><path fill="#bc8741" d="M 642.789062 131.046875 C 642.789062 133.1875 642.734375 135.328125 642.632812 137.464844 C 642.527344 139.601562 642.367188 141.738281 642.160156 143.867188 C 641.949219 145.996094 641.6875 148.121094 641.371094 150.238281 C 641.058594 152.355469 640.691406 154.464844 640.273438 156.5625 C 639.859375 158.664062 639.390625 160.75 638.867188 162.828125 C 638.347656 164.90625 637.777344 166.964844 637.15625 169.015625 C 636.535156 171.0625 635.863281 173.09375 635.144531 175.109375 C 634.421875 177.125 633.652344 179.121094 632.832031 181.101562 C 632.011719 183.078125 631.144531 185.035156 630.230469 186.96875 C 629.316406 188.902344 628.355469 190.816406 627.34375 192.703125 C 626.335938 194.589844 625.28125 196.453125 624.179688 198.289062 C 623.078125 200.125 621.933594 201.933594 620.746094 203.710938 C 619.554688 205.492188 618.324219 207.242188 617.050781 208.960938 C 615.773438 210.679688 614.457031 212.367188 613.101562 214.023438 C 611.742188 215.675781 610.34375 217.296875 608.90625 218.882812 C 607.46875 220.46875 605.992188 222.019531 604.480469 223.53125 C 602.964844 225.046875 601.417969 226.523438 599.832031 227.960938 C 598.246094 229.398438 596.625 230.792969 594.96875 232.152344 C 593.316406 233.511719 591.628906 234.828125 589.910156 236.101562 C 588.1875 237.378906 586.441406 238.609375 584.660156 239.796875 C 582.878906 240.988281 581.070312 242.132812 579.234375 243.234375 C 577.398438 244.332031 575.539062 245.386719 573.652344 246.398438 C 571.761719 247.40625 569.851562 248.367188 567.917969 249.285156 C 565.980469 250.199219 564.023438 251.066406 562.046875 251.886719 C 560.070312 252.703125 558.074219 253.472656 556.058594 254.195312 C 554.042969 254.917969 552.011719 255.589844 549.960938 256.210938 C 547.914062 256.832031 545.851562 257.402344 543.773438 257.921875 C 541.699219 258.441406 539.609375 258.910156 537.511719 259.328125 C 535.410156 259.746094 533.304688 260.113281 531.1875 260.425781 C 529.070312 260.738281 526.945312 261 524.816406 261.210938 C 522.683594 261.421875 520.550781 261.578125 518.414062 261.683594 C 516.273438 261.789062 514.136719 261.839844 511.996094 261.839844 C 509.855469 261.839844 507.714844 261.789062 505.578125 261.683594 C 503.4375 261.578125 501.304688 261.421875 499.175781 261.210938 C 497.042969 261 494.921875 260.738281 492.804688 260.425781 C 490.6875 260.113281 488.578125 259.746094 486.476562 259.328125 C 484.378906 258.910156 482.292969 258.441406 480.214844 257.921875 C 478.136719 257.402344 476.074219 256.832031 474.027344 256.210938 C 471.980469 255.589844 469.949219 254.917969 467.933594 254.195312 C 465.917969 253.472656 463.921875 252.703125 461.941406 251.886719 C 459.964844 251.066406 458.007812 250.199219 456.074219 249.285156 C 454.136719 248.367188 452.226562 247.40625 450.339844 246.398438 C 448.453125 245.386719 446.589844 244.332031 444.753906 243.234375 C 442.917969 242.132812 441.109375 240.988281 439.328125 239.796875 C 437.550781 238.609375 435.800781 237.378906 434.082031 236.101562 C 432.363281 234.828125 430.675781 233.511719 429.019531 232.152344 C 427.367188 230.792969 425.746094 229.398438 424.160156 227.960938 C 422.574219 226.523438 421.023438 225.046875 419.511719 223.53125 C 417.996094 222.019531 416.519531 220.46875 415.082031 218.882812 C 413.644531 217.296875 412.25 215.675781 410.890625 214.023438 C 409.53125 212.367188 408.214844 210.679688 406.941406 208.960938 C 405.664062 207.242188 404.433594 205.492188 403.242188 203.710938 C 402.054688 201.933594 400.910156 200.125 399.808594 198.289062 C 398.710938 196.453125 397.65625 194.589844 396.644531 192.703125 C 395.636719 190.816406 394.675781 188.902344 393.757812 186.96875 C 392.84375 185.035156 391.976562 183.078125 391.15625 181.101562 C 390.339844 179.121094 389.566406 177.125 388.847656 175.109375 C 388.125 173.09375 387.453125 171.0625 386.832031 169.015625 C 386.210938 166.964844 385.640625 164.90625 385.121094 162.828125 C 384.601562 160.75 384.132812 158.664062 383.714844 156.5625 C 383.296875 154.464844 382.929688 152.355469 382.617188 150.238281 C 382.304688 148.121094 382.039062 145.996094 381.832031 143.867188 C 381.621094 141.738281 381.464844 139.601562 381.359375 137.464844 C 381.253906 135.328125 381.203125 133.1875 381.203125 131.046875 C 381.203125 128.90625 381.253906 126.769531 381.359375 124.628906 C 381.464844 122.492188 381.621094 120.359375 381.832031 118.226562 C 382.039062 116.097656 382.304688 113.972656 382.617188 111.855469 C 382.929688 109.738281 383.296875 107.628906 383.714844 105.53125 C 384.132812 103.433594 384.601562 101.34375 385.121094 99.265625 C 385.640625 97.191406 386.210938 95.128906 386.832031 93.082031 C 387.453125 91.03125 388.125 89 388.847656 86.984375 C 389.566406 84.96875 390.339844 82.972656 391.15625 80.996094 C 391.976562 79.015625 392.84375 77.0625 393.757812 75.125 C 394.675781 73.191406 395.636719 71.28125 396.644531 69.390625 C 397.65625 67.503906 398.710938 65.640625 399.808594 63.804688 C 400.910156 61.96875 402.054688 60.164062 403.242188 58.382812 C 404.433594 56.601562 405.664062 54.851562 406.941406 53.132812 C 408.214844 51.414062 409.53125 49.726562 410.890625 48.074219 C 412.25 46.417969 413.644531 44.796875 415.082031 43.210938 C 416.519531 41.625 417.996094 40.078125 419.511719 38.5625 C 421.023438 37.050781 422.574219 35.574219 424.160156 34.136719 C 425.746094 32.699219 427.367188 31.300781 429.019531 29.941406 C 430.675781 28.585938 432.363281 27.269531 434.082031 25.992188 C 435.800781 24.71875 437.550781 23.484375 439.328125 22.296875 C 441.109375 21.109375 442.917969 19.960938 444.753906 18.863281 C 446.589844 17.761719 448.453125 16.707031 450.339844 15.699219 C 452.226562 14.6875 454.136719 13.726562 456.074219 12.8125 C 458.007812 11.898438 459.964844 11.03125 461.941406 10.210938 C 463.921875 9.390625 465.917969 8.621094 467.933594 7.898438 C 469.949219 7.179688 471.980469 6.507812 474.027344 5.886719 C 476.074219 5.265625 478.136719 4.695312 480.214844 4.175781 C 482.292969 3.652344 484.378906 3.183594 486.476562 2.765625 C 488.578125 2.351562 490.6875 1.984375 492.804688 1.667969 C 494.921875 1.355469 497.042969 1.09375 499.175781 0.882812 C 501.304688 0.675781 503.4375 0.515625 505.578125 0.410156 C 507.714844 0.304688 509.855469 0.253906 511.996094 0.253906 C 514.136719 0.253906 516.273438 0.304688 518.414062 0.410156 C 520.550781 0.515625 522.683594 0.675781 524.816406 0.882812 C 526.945312 1.09375 529.070312 1.355469 531.1875 1.667969 C 533.304688 1.984375 535.410156 2.351562 537.511719 2.765625 C 539.609375 3.183594 541.699219 3.652344 543.773438 4.175781 C 545.851562 4.695312 547.914062 5.265625 549.960938 5.886719 C 552.011719 6.507812 554.042969 7.179688 556.058594 7.898438 C 558.074219 8.621094 560.070312 9.390625 562.046875 10.210938 C 564.023438 11.03125 565.980469 11.898438 567.917969 12.8125 C 569.851562 13.726562 571.761719 14.6875 573.652344 15.699219 C 575.539062 16.707031 577.398438 17.761719 579.234375 18.863281 C 581.074219 19.960938 582.878906 21.109375 584.660156 22.296875 C 586.441406 23.484375 588.1875 24.71875 589.910156 25.992188 C 591.628906 27.269531 593.316406 28.585938 594.96875 29.941406 C 596.625 31.300781 598.246094 32.699219 599.832031 34.136719 C 601.417969 35.574219 602.964844 37.050781 604.480469 38.5625 C 605.992188 40.078125 607.46875 41.625 608.90625 43.210938 C 610.34375 44.796875 611.742188 46.417969 613.101562 48.074219 C 614.457031 49.726562 615.773438 51.414062 617.050781 53.132812 C 618.324219 54.851562 619.554688 56.601562 620.746094 58.382812 C 621.933594 60.164062 623.078125 61.96875 624.179688 63.804688 C 625.28125 65.640625 626.335938 67.503906 627.34375 69.390625 C 628.355469 71.28125 629.316406 73.191406 630.230469 75.125 C 631.144531 77.0625 632.011719 79.015625 632.832031 80.996094 C 633.652344 82.972656 634.421875 84.96875 635.144531 86.984375 C 635.863281 89 636.535156 91.03125 637.15625 93.082031 C 637.777344 95.128906 638.347656 97.191406 638.867188 99.265625 C 639.390625 101.34375 639.859375 103.433594 640.273438 105.53125 C 640.691406 107.628906 641.058594 109.738281 641.371094 111.855469 C 641.6875 113.972656 641.949219 116.097656 642.160156 118.226562 C 642.367188 120.359375 642.527344 122.492188 642.632812 124.628906 C 642.734375 126.769531 642.789062 128.90625 642.789062 131.046875 Z M 642.789062 131.046875 " fill-opacity="1" fill-rule="nonzero"/></g><path fill="#bc8741" d="M 560.648438 463.785156 L 511.996094 318.34375 L 463.339844 463.785156 L 463.339844 464.046875 L 511.996094 512.703125 L 560.648438 464.046875 Z M 560.648438 463.785156 " fill-opacity="1" fill-rule="nonzero"/><g clip-path="url(#a07dfdb246)"><path fill="#bc8741" d="M 564.3125 288 L 556.988281 288 L 614.796875 461.171875 C 615.265625 462.363281 615.648438 463.585938 615.941406 464.835938 C 616.234375 466.085938 616.4375 467.347656 616.550781 468.628906 C 616.664062 469.90625 616.683594 471.183594 616.609375 472.464844 C 616.539062 473.746094 616.375 475.015625 616.121094 476.273438 C 615.867188 477.53125 615.527344 478.765625 615.09375 479.976562 C 614.664062 481.183594 614.148438 482.355469 613.550781 483.488281 C 612.953125 484.625 612.273438 485.710938 611.519531 486.75 C 610.765625 487.785156 609.9375 488.765625 609.042969 489.683594 L 522.980469 575.746094 L 747.421875 575.746094 C 748.28125 575.742188 749.132812 575.699219 749.984375 575.613281 C 750.835938 575.527344 751.683594 575.398438 752.523438 575.230469 C 753.359375 575.0625 754.191406 574.851562 755.007812 574.601562 C 755.828125 574.351562 756.632812 574.0625 757.421875 573.734375 C 758.210938 573.40625 758.984375 573.039062 759.738281 572.636719 C 760.492188 572.230469 761.226562 571.789062 761.9375 571.3125 C 762.648438 570.839844 763.335938 570.328125 763.996094 569.785156 C 764.660156 569.242188 765.292969 568.667969 765.898438 568.0625 C 766.503906 567.457031 767.078125 566.824219 767.621094 566.160156 C 768.164062 565.5 768.675781 564.8125 769.148438 564.101562 C 769.625 563.390625 770.066406 562.65625 770.472656 561.902344 C 770.875 561.148438 771.242188 560.375 771.570312 559.585938 C 771.898438 558.796875 772.1875 557.992188 772.4375 557.171875 C 772.6875 556.355469 772.898438 555.523438 773.066406 554.683594 C 773.234375 553.847656 773.363281 553 773.449219 552.148438 C 773.535156 551.296875 773.578125 550.441406 773.582031 549.585938 L 773.582031 497.269531 C 773.578125 493.847656 773.488281 490.425781 773.316406 487.003906 C 773.144531 483.585938 772.890625 480.171875 772.550781 476.765625 C 772.210938 473.359375 771.789062 469.964844 771.28125 466.578125 C 770.773438 463.191406 770.1875 459.820312 769.515625 456.460938 C 768.84375 453.105469 768.089844 449.765625 767.257812 446.445312 C 766.421875 443.125 765.503906 439.828125 764.507812 436.554688 C 763.511719 433.277344 762.4375 430.027344 761.28125 426.804688 C 760.125 423.582031 758.890625 420.390625 757.578125 417.230469 C 756.265625 414.066406 754.878906 410.9375 753.410156 407.84375 C 751.945312 404.75 750.40625 401.695312 748.789062 398.675781 C 747.175781 395.65625 745.488281 392.679688 743.726562 389.742188 C 741.964844 386.808594 740.132812 383.917969 738.230469 381.070312 C 736.324219 378.226562 734.355469 375.425781 732.3125 372.679688 C 730.273438 369.929688 728.167969 367.230469 725.996094 364.585938 C 723.824219 361.9375 721.585938 359.347656 719.289062 356.8125 C 716.988281 354.273438 714.628906 351.796875 712.207031 349.375 C 709.785156 346.953125 707.308594 344.59375 704.769531 342.292969 C 702.234375 339.996094 699.644531 337.757812 696.996094 335.585938 C 694.351562 333.414062 691.652344 331.308594 688.902344 329.269531 C 686.15625 327.226562 683.355469 325.257812 680.511719 323.351562 C 677.664062 321.449219 674.773438 319.617188 671.839844 317.855469 C 668.902344 316.09375 665.925781 314.40625 662.90625 312.792969 C 659.886719 311.175781 656.832031 309.636719 653.738281 308.171875 C 650.644531 306.703125 647.515625 305.316406 644.351562 304.003906 C 641.191406 302.691406 638 301.457031 634.777344 300.300781 C 631.554688 299.144531 628.304688 298.070312 625.027344 297.074219 C 621.753906 296.078125 618.457031 295.160156 615.136719 294.324219 C 611.816406 293.492188 608.476562 292.738281 605.121094 292.066406 C 601.761719 291.394531 598.390625 290.808594 595.003906 290.300781 C 591.617188 289.796875 588.222656 289.371094 584.816406 289.03125 C 581.410156 288.691406 577.996094 288.4375 574.578125 288.265625 C 571.15625 288.09375 567.734375 288.003906 564.3125 288 Z M 564.3125 288 " fill-opacity="1" fill-rule="nonzero"/></g><g clip-path="url(#623bd08a67)"><path fill="#bc8741" d="M 414.945312 489.683594 C 414.050781 488.765625 413.226562 487.785156 412.46875 486.75 C 411.714844 485.710938 411.039062 484.625 410.4375 483.488281 C 409.839844 482.355469 409.324219 481.183594 408.894531 479.976562 C 408.464844 478.765625 408.121094 477.53125 407.867188 476.273438 C 407.613281 475.015625 407.449219 473.746094 407.378906 472.464844 C 407.308594 471.183594 407.328125 469.90625 407.4375 468.628906 C 407.550781 467.347656 407.753906 466.085938 408.046875 464.835938 C 408.339844 463.585938 408.722656 462.363281 409.191406 461.171875 L 467 288 L 459.675781 288 C 456.253906 288.003906 452.832031 288.09375 449.414062 288.265625 C 445.992188 288.4375 442.582031 288.691406 439.175781 289.03125 C 435.765625 289.371094 432.371094 289.796875 428.984375 290.300781 C 425.597656 290.808594 422.226562 291.394531 418.871094 292.066406 C 415.511719 292.738281 412.175781 293.492188 408.855469 294.324219 C 405.535156 295.160156 402.234375 296.078125 398.960938 297.074219 C 395.683594 298.070312 392.4375 299.144531 389.214844 300.300781 C 385.992188 301.457031 382.796875 302.691406 379.636719 304.003906 C 376.472656 305.316406 373.347656 306.703125 370.253906 308.171875 C 367.15625 309.636719 364.101562 311.175781 361.082031 312.792969 C 358.066406 314.40625 355.085938 316.09375 352.152344 317.855469 C 349.214844 319.617188 346.324219 321.449219 343.480469 323.351562 C 340.632812 325.257812 337.835938 327.226562 335.085938 329.269531 C 332.335938 331.308594 329.640625 333.414062 326.992188 335.585938 C 324.347656 337.757812 321.753906 339.996094 319.21875 342.292969 C 316.683594 344.59375 314.203125 346.953125 311.78125 349.375 C 309.363281 351.796875 307 354.273438 304.703125 356.8125 C 302.402344 359.347656 300.167969 361.9375 297.996094 364.585938 C 295.820312 367.230469 293.714844 369.929688 291.675781 372.679688 C 289.636719 375.425781 287.664062 378.226562 285.761719 381.070312 C 283.859375 383.917969 282.027344 386.808594 280.265625 389.742188 C 278.503906 392.679688 276.816406 395.65625 275.199219 398.675781 C 273.585938 401.695312 272.042969 404.75 270.578125 407.84375 C 269.113281 410.9375 267.722656 414.066406 266.410156 417.230469 C 265.097656 420.390625 263.863281 423.582031 262.710938 426.804688 C 261.554688 430.027344 260.476562 433.277344 259.480469 436.554688 C 258.484375 439.828125 257.570312 443.125 256.734375 446.445312 C 255.898438 449.765625 255.144531 453.105469 254.476562 456.460938 C 253.804688 459.820312 253.214844 463.191406 252.707031 466.578125 C 252.203125 469.964844 251.78125 473.359375 251.441406 476.765625 C 251.101562 480.171875 250.84375 483.585938 250.671875 487.003906 C 250.5 490.425781 250.414062 493.847656 250.40625 497.269531 L 250.40625 549.585938 C 250.410156 550.441406 250.453125 551.296875 250.539062 552.148438 C 250.625 553 250.753906 553.847656 250.921875 554.683594 C 251.089844 555.523438 251.300781 556.351562 251.550781 557.171875 C 251.800781 557.992188 252.089844 558.796875 252.417969 559.585938 C 252.746094 560.375 253.113281 561.148438 253.519531 561.902344 C 253.921875 562.65625 254.363281 563.390625 254.839844 564.101562 C 255.316406 564.8125 255.824219 565.5 256.367188 566.160156 C 256.910156 566.824219 257.484375 567.457031 258.089844 568.0625 C 258.695312 568.667969 259.332031 569.242188 259.992188 569.785156 C 260.652344 570.328125 261.339844 570.839844 262.050781 571.3125 C 262.761719 571.789062 263.496094 572.230469 264.25 572.636719 C 265.003906 573.039062 265.777344 573.40625 266.566406 573.734375 C 267.359375 574.0625 268.164062 574.351562 268.980469 574.601562 C 269.800781 574.851562 270.628906 575.0625 271.46875 575.230469 C 272.308594 575.398438 273.152344 575.527344 274.003906 575.613281 C 274.855469 575.699219 275.710938 575.742188 276.566406 575.746094 L 501.269531 575.746094 C 501.269531 575.746094 484.550781 559.289062 414.945312 489.683594 Z M 414.945312 489.683594 " fill-opacity="1" fill-rule="nonzero"/></g></svg>