<svg xmlns="http://www.w3.org/2000/svg" xmlns:xlink="http://www.w3.org/1999/xlink" width="768" zoomAndPan="magnify" viewBox="0 0 576 576" height="768" preserveAspectRatio="xMidYMid meet" version="1.0"><path fill="#2b2828" d="M 288 0 C 128.914062 0 0 128.914062 0 288 C 0 447.085938 128.914062 576 288 576 C 447.085938 576 576 447.085938 576 288 C 575.75 128.914062 446.835938 0 288 0 Z M 288 490.972656 C 255.085938 490.972656 129.910156 355.074219 129.910156 255.085938 C 129.910156 167.3125 200.230469 93.753906 288 93.753906 C 375.769531 93.753906 446.089844 167.3125 446.089844 255.085938 C 446.089844 354.824219 320.914062 490.972656 288 490.972656 Z M 288 490.972656 " fill-opacity="1" fill-rule="nonzero"/><path fill="#2b2828" d="M 288 155.34375 C 280.769531 155.34375 273.785156 156.09375 267.304688 157.589844 C 271.292969 160.082031 275.035156 163.574219 278.027344 167.5625 C 290.246094 184.519531 286.253906 207.957031 269.296875 220.175781 C 252.34375 232.394531 228.902344 228.40625 216.6875 211.449219 C 212.945312 206.214844 210.949219 200.476562 210.203125 194.492188 C 198.734375 209.953125 192 228.65625 192 249.101562 C 192 300.71875 234.886719 342.609375 287.75 342.609375 C 340.613281 342.609375 383.5 300.71875 383.5 249.101562 C 383.75 197.238281 340.863281 155.34375 288 155.34375 Z M 288 155.34375 " fill-opacity="1" fill-rule="nonzero"/></svg>