<svg xmlns="http://www.w3.org/2000/svg" xmlns:xlink="http://www.w3.org/1999/xlink" width="1366" zoomAndPan="magnify" viewBox="0 0 1024.5 576" height="768" preserveAspectRatio="xMidYMid meet" version="1.0"><defs><clipPath id="b50eab3164"><path d="M 298.78125 151.539062 L 725.320312 151.539062 L 725.320312 424.40625 L 298.78125 424.40625 Z M 298.78125 151.539062 " clip-rule="nonzero"/></clipPath></defs><g clip-path="url(#b50eab3164)"><path fill="#004d29" d="M 691.097656 407.394531 L 332.898438 407.394531 C 323.488281 407.394531 315.84375 399.75 315.84375 390.339844 L 315.84375 272.570312 L 708.15625 272.570312 L 708.15625 390.339844 C 708.15625 399.75 700.507812 407.394531 691.097656 407.394531 Z M 708.15625 255.515625 L 315.84375 255.515625 L 315.84375 215.238281 L 708.15625 215.238281 Z M 332.898438 168.597656 L 691.097656 168.597656 C 700.507812 168.597656 708.15625 176.242188 708.15625 185.652344 L 708.15625 198.179688 L 315.84375 198.179688 L 315.84375 185.652344 C 315.84375 176.242188 323.488281 168.597656 332.898438 168.597656 Z M 691.097656 151.539062 L 332.898438 151.539062 C 314.09375 151.539062 298.785156 166.847656 298.785156 185.652344 L 298.785156 390.339844 C 298.785156 409.144531 314.09375 424.453125 332.898438 424.453125 L 691.097656 424.453125 C 709.902344 424.453125 725.210938 409.144531 725.210938 390.339844 L 725.210938 185.652344 C 725.210938 166.847656 709.902344 151.539062 691.097656 151.539062 Z M 476.152344 334.636719 C 476.152344 329.921875 479.984375 326.109375 484.679688 326.109375 L 507.917969 326.109375 C 512.632812 326.109375 516.445312 329.921875 516.445312 334.636719 C 516.445312 339.335938 512.632812 343.164062 507.917969 343.164062 L 484.679688 343.164062 C 479.984375 343.164062 476.152344 339.335938 476.152344 334.636719 Z M 412.652344 334.636719 C 412.652344 329.921875 416.46875 326.109375 421.183594 326.109375 L 444.402344 326.109375 C 449.117188 326.109375 452.929688 329.921875 452.929688 334.636719 C 452.929688 339.335938 449.117188 343.164062 444.402344 343.164062 L 421.183594 343.164062 C 416.46875 343.164062 412.652344 339.335938 412.652344 334.636719 Z M 349.140625 334.636719 C 349.140625 329.921875 352.953125 326.109375 357.667969 326.109375 L 380.890625 326.109375 C 385.601562 326.109375 389.417969 329.921875 389.417969 334.636719 C 389.417969 339.335938 385.601562 343.164062 380.890625 343.164062 L 357.667969 343.164062 C 352.953125 343.164062 349.140625 339.335938 349.140625 334.636719 Z M 520.527344 365.667969 C 520.527344 370.367188 516.710938 374.199219 512 374.199219 L 357.667969 374.199219 C 352.953125 374.199219 349.140625 370.367188 349.140625 365.667969 C 349.140625 360.957031 352.953125 357.140625 357.667969 357.140625 L 512 357.140625 C 516.710938 357.140625 520.527344 360.957031 520.527344 365.667969 Z M 640.242188 355.257812 C 644.109375 349.3125 646.390625 342.234375 646.390625 334.636719 C 646.390625 327.023438 644.109375 319.945312 640.242188 314 C 650.621094 315.214844 658.714844 323.941406 658.714844 334.636719 C 658.714844 345.332031 650.621094 354.058594 640.242188 355.257812 Z M 587.589844 334.636719 C 587.589844 323.941406 595.703125 315.199219 606.078125 314 C 602.214844 319.945312 599.933594 327.023438 599.933594 334.636719 C 599.933594 342.234375 602.214844 349.3125 606.078125 355.257812 C 595.703125 354.058594 587.589844 345.332031 587.589844 334.636719 Z M 616.988281 334.636719 C 616.988281 328.855469 619.355469 323.625 623.167969 319.84375 C 626.96875 323.625 629.332031 328.855469 629.332031 334.636719 C 629.332031 340.398438 626.96875 345.648438 623.167969 349.429688 C 619.355469 345.648438 616.988281 340.398438 616.988281 334.636719 Z M 637.859375 296.707031 C 632.648438 296.707031 627.683594 297.757812 623.167969 299.671875 C 618.640625 297.757812 613.675781 296.707031 608.460938 296.707031 C 587.554688 296.707031 570.53125 313.714844 570.53125 334.636719 C 570.53125 355.542969 587.554688 372.566406 608.460938 372.566406 C 613.675781 372.566406 618.640625 371.5 623.167969 369.582031 C 627.683594 371.5 632.648438 372.566406 637.859375 372.566406 C 658.765625 372.566406 675.773438 355.542969 675.773438 334.636719 C 675.773438 313.714844 658.765625 296.707031 637.859375 296.707031 " fill-opacity="1" fill-rule="nonzero"/></g></svg>