<svg xmlns="http://www.w3.org/2000/svg" xmlns:xlink="http://www.w3.org/1999/xlink" width="768" zoomAndPan="magnify" viewBox="0 0 576 576" height="768" preserveAspectRatio="xMidYMid meet" version="1.0"><defs><g/><clipPath id="c3b0ba4703"><path d="M 59.039062 334 L 517.289062 334 L 517.289062 536 L 59.039062 536 Z M 59.039062 334 " clip-rule="nonzero"/></clipPath></defs><path fill="#f2f2f2" d="M 488.070312 120.4375 L 488.070312 558.5 C 488.070312 568.078125 480.21875 575.925781 470.632812 575.925781 L 105.695312 575.925781 C 96.109375 575.925781 88.257812 568.078125 88.257812 558.5 L 88.257812 17.5 C 88.257812 7.921875 96.109375 0.0742188 105.695312 0.0742188 L 366.234375 0.0742188 Z M 488.070312 120.4375 " fill-opacity="1" fill-rule="nonzero"/><path fill="#cccccc" d="M 488.070312 120.4375 L 383.789062 120.4375 C 374.203125 120.4375 366.347656 112.589844 366.347656 103.011719 L 366.347656 0.0742188 " fill-opacity="0.73" fill-rule="nonzero"/><g clip-path="url(#c3b0ba4703)"><path fill="#006837" d="M 494.191406 535.304688 L 82.136719 535.304688 C 69.433594 535.304688 59.039062 524.917969 59.039062 512.222656 L 59.039062 357.355469 C 59.039062 344.660156 69.433594 334.277344 82.136719 334.277344 L 494.191406 334.277344 C 506.894531 334.277344 517.289062 344.660156 517.289062 357.355469 L 517.289062 512.222656 C 517.289062 524.917969 507.011719 535.304688 494.191406 535.304688 Z M 494.191406 535.304688 " fill-opacity="1" fill-rule="nonzero"/></g><path fill="#666666" d="M 424.09375 279 L 153.046875 279 C 147.273438 279 142.652344 274.382812 142.652344 268.613281 C 142.652344 262.84375 147.273438 258.226562 153.046875 258.226562 L 424.09375 258.226562 C 429.867188 258.226562 434.484375 262.84375 434.484375 268.613281 C 434.484375 274.382812 429.867188 279 424.09375 279 Z M 424.09375 279 " fill-opacity="0.77" fill-rule="nonzero"/><path fill="#666666" d="M 424.09375 227.761719 L 153.046875 227.761719 C 147.273438 227.761719 142.652344 223.144531 142.652344 217.375 C 142.652344 211.605469 147.273438 206.988281 153.046875 206.988281 L 424.09375 206.988281 C 429.867188 206.988281 434.484375 211.605469 434.484375 217.375 C 434.484375 223.144531 429.867188 227.761719 424.09375 227.761719 Z M 424.09375 227.761719 " fill-opacity="0.77" fill-rule="nonzero"/><path fill="#666666" d="M 424.09375 176.636719 L 153.046875 176.636719 C 147.273438 176.636719 142.652344 172.023438 142.652344 166.253906 C 142.652344 160.480469 147.273438 155.867188 153.046875 155.867188 L 424.09375 155.867188 C 429.867188 155.867188 434.484375 160.480469 434.484375 166.253906 C 434.484375 172.023438 429.867188 176.636719 424.09375 176.636719 Z M 424.09375 176.636719 " fill-opacity="0.77" fill-rule="nonzero"/><path fill="#ffffff" d="M 175.679688 453.136719 L 153.96875 490.757812 L 118.863281 490.757812 L 158.820312 434.558594 L 121.632812 379.28125 L 155.585938 379.28125 L 176.605469 416.441406 L 199.242188 379.28125 L 232.730469 379.28125 L 193.8125 434.097656 L 233.078125 490.757812 L 199.125 490.757812 Z M 175.679688 453.136719 " fill-opacity="1" fill-rule="nonzero"/><path fill="#ffffff" d="M 339.210938 490.757812 L 253.632812 490.757812 L 253.632812 379.28125 L 282.738281 379.28125 L 282.738281 466.179688 L 339.210938 466.179688 Z M 339.210938 490.757812 " fill-opacity="1" fill-rule="nonzero"/><path fill="#ffffff" d="M 446.496094 413.671875 L 417.394531 413.671875 C 416.125 404.4375 411.273438 398.324219 401.6875 398.324219 C 395.105469 398.324219 390.484375 401.554688 390.484375 408.363281 C 390.484375 415.519531 395.683594 419.789062 414.046875 424.171875 C 438.644531 429.941406 448.691406 442.289062 448.691406 459.371094 C 448.691406 481.640625 427.324219 492.953125 404.921875 492.953125 C 376.628906 492.953125 357.574219 481.640625 355.722656 456.601562 L 384.828125 456.601562 C 386.789062 467.101562 395.335938 471.601562 404.113281 471.601562 C 412.199219 471.601562 418.316406 467.449219 418.316406 461.214844 C 418.316406 455.445312 414.160156 450.367188 400.417969 447.023438 C 375.011719 440.675781 360.113281 432.828125 360.113281 410.554688 C 360.113281 389.089844 380.207031 376.972656 402.265625 376.972656 C 431.828125 377.089844 444.070312 393.015625 446.496094 413.671875 Z M 446.496094 413.671875 " fill-opacity="1" fill-rule="nonzero"/><g fill="#000000" fill-opacity="1"><g transform="translate(74.135291, 519.216655)"><g><path d="M 0.25 -0.015625 C 0.289062 -0.015625 0.320312 -0.0195312 0.34375 -0.03125 C 0.363281 -0.0507812 0.375 -0.078125 0.375 -0.109375 L 0.375 -0.859375 L 0.359375 -0.859375 C 0.316406 -0.859375 0.273438 -0.851562 0.234375 -0.84375 C 0.203125 -0.832031 0.175781 -0.816406 0.15625 -0.796875 C 0.132812 -0.773438 0.113281 -0.753906 0.09375 -0.734375 C 0.0820312 -0.722656 0.0703125 -0.707031 0.0625 -0.6875 C 0.0625 -0.675781 0.0625 -0.664062 0.0625 -0.65625 L 0.0625 -0.640625 L 0.046875 -0.640625 L 0.078125 -0.859375 L 0.875 -0.859375 L 0.90625 -0.640625 L 0.890625 -0.640625 L 0.890625 -0.65625 C 0.890625 -0.664062 0.882812 -0.675781 0.875 -0.6875 C 0.875 -0.707031 0.863281 -0.722656 0.84375 -0.734375 C 0.832031 -0.753906 0.816406 -0.773438 0.796875 -0.796875 C 0.773438 -0.816406 0.742188 -0.832031 0.703125 -0.84375 C 0.671875 -0.851562 0.632812 -0.859375 0.59375 -0.859375 L 0.578125 -0.859375 L 0.578125 -0.109375 C 0.578125 -0.078125 0.585938 -0.0507812 0.609375 -0.03125 C 0.628906 -0.0195312 0.660156 -0.015625 0.703125 -0.015625 L 0.703125 0 L 0.25 0 Z M 0.25 -0.015625 "/></g></g></g><g fill="#000000" fill-opacity="1"><g transform="translate(75.091295, 519.216655)"><g><path d="M 0.203125 -0.90625 L 0.1875 -0.90625 L 0.28125 -1.015625 L 0.359375 -1.015625 Z M 0.046875 -0.015625 C 0.0859375 -0.015625 0.117188 -0.0195312 0.140625 -0.03125 C 0.160156 -0.0507812 0.171875 -0.078125 0.171875 -0.109375 L 0.171875 -0.75 C 0.171875 -0.78125 0.160156 -0.804688 0.140625 -0.828125 C 0.117188 -0.847656 0.0859375 -0.859375 0.046875 -0.859375 L 0.5 -0.859375 C 0.457031 -0.859375 0.425781 -0.847656 0.40625 -0.828125 C 0.382812 -0.804688 0.375 -0.78125 0.375 -0.75 L 0.375 -0.109375 C 0.375 -0.078125 0.382812 -0.0507812 0.40625 -0.03125 C 0.425781 -0.0195312 0.457031 -0.015625 0.5 -0.015625 L 0.5 0 L 0.046875 0 Z M 0.046875 -0.015625 "/></g></g></g><g fill="#000000" fill-opacity="1"><g transform="translate(75.634298, 519.216655)"><g><path d="M 0.25 -0.015625 C 0.289062 -0.015625 0.320312 -0.0195312 0.34375 -0.03125 C 0.363281 -0.0507812 0.375 -0.078125 0.375 -0.109375 L 0.375 -0.859375 L 0.359375 -0.859375 C 0.316406 -0.859375 0.273438 -0.851562 0.234375 -0.84375 C 0.203125 -0.832031 0.175781 -0.816406 0.15625 -0.796875 C 0.132812 -0.773438 0.113281 -0.753906 0.09375 -0.734375 C 0.0820312 -0.722656 0.0703125 -0.707031 0.0625 -0.6875 C 0.0625 -0.675781 0.0625 -0.664062 0.0625 -0.65625 L 0.0625 -0.640625 L 0.046875 -0.640625 L 0.078125 -0.859375 L 0.875 -0.859375 L 0.90625 -0.640625 L 0.890625 -0.640625 L 0.890625 -0.65625 C 0.890625 -0.664062 0.882812 -0.675781 0.875 -0.6875 C 0.875 -0.707031 0.863281 -0.722656 0.84375 -0.734375 C 0.832031 -0.753906 0.816406 -0.773438 0.796875 -0.796875 C 0.773438 -0.816406 0.742188 -0.832031 0.703125 -0.84375 C 0.671875 -0.851562 0.632812 -0.859375 0.59375 -0.859375 L 0.578125 -0.859375 L 0.578125 -0.109375 C 0.578125 -0.078125 0.585938 -0.0507812 0.609375 -0.03125 C 0.628906 -0.0195312 0.660156 -0.015625 0.703125 -0.015625 L 0.703125 0 L 0.25 0 Z M 0.25 -0.015625 "/></g></g></g><g fill="#000000" fill-opacity="1"><g transform="translate(76.590302, 519.216655)"><g><path d="M 0.515625 0 C 0.472656 0 0.429688 -0.00390625 0.390625 -0.015625 C 0.347656 -0.0234375 0.304688 -0.0390625 0.265625 -0.0625 C 0.234375 -0.09375 0.207031 -0.125 0.1875 -0.15625 C 0.164062 -0.195312 0.15625 -0.238281 0.15625 -0.28125 L 0.15625 -0.75 C 0.15625 -0.78125 0.144531 -0.804688 0.125 -0.828125 C 0.113281 -0.847656 0.0859375 -0.859375 0.046875 -0.859375 L 0.484375 -0.859375 C 0.441406 -0.859375 0.410156 -0.847656 0.390625 -0.828125 C 0.378906 -0.804688 0.375 -0.78125 0.375 -0.75 L 0.375 -0.359375 C 0.375 -0.328125 0.375 -0.296875 0.375 -0.265625 C 0.375 -0.234375 0.378906 -0.203125 0.390625 -0.171875 C 0.398438 -0.140625 0.410156 -0.109375 0.421875 -0.078125 C 0.429688 -0.0546875 0.445312 -0.0351562 0.46875 -0.015625 C 0.488281 -0.00390625 0.515625 0 0.546875 0 C 0.566406 0 0.585938 0 0.609375 0 C 0.640625 -0.0078125 0.664062 -0.0195312 0.6875 -0.03125 C 0.71875 -0.0507812 0.742188 -0.0703125 0.765625 -0.09375 C 0.785156 -0.113281 0.800781 -0.140625 0.8125 -0.171875 C 0.832031 -0.203125 0.84375 -0.234375 0.84375 -0.265625 L 0.84375 -0.75 C 0.84375 -0.78125 0.832031 -0.804688 0.8125 -0.828125 C 0.789062 -0.847656 0.757812 -0.859375 0.71875 -0.859375 L 0.953125 -0.859375 C 0.921875 -0.859375 0.894531 -0.847656 0.875 -0.828125 C 0.851562 -0.804688 0.84375 -0.78125 0.84375 -0.75 L 0.84375 -0.265625 C 0.84375 -0.210938 0.828125 -0.164062 0.796875 -0.125 C 0.765625 -0.0820312 0.722656 -0.0507812 0.671875 -0.03125 C 0.628906 -0.0078125 0.578125 0 0.515625 0 Z M 0.515625 0 "/></g></g></g><g fill="#000000" fill-opacity="1"><g transform="translate(77.598307, 519.216655)"><g><path d="M 0.046875 -0.015625 C 0.0859375 -0.015625 0.117188 -0.0195312 0.140625 -0.03125 C 0.160156 -0.0507812 0.171875 -0.078125 0.171875 -0.109375 L 0.171875 -0.75 C 0.171875 -0.78125 0.160156 -0.804688 0.140625 -0.828125 C 0.117188 -0.847656 0.0859375 -0.859375 0.046875 -0.859375 L 0.5 -0.859375 C 0.457031 -0.859375 0.425781 -0.847656 0.40625 -0.828125 C 0.382812 -0.804688 0.375 -0.78125 0.375 -0.75 L 0.375 -0.109375 C 0.375 -0.078125 0.382812 -0.0507812 0.40625 -0.03125 C 0.425781 -0.0195312 0.457031 -0.015625 0.5 -0.015625 C 0.582031 -0.015625 0.648438 -0.03125 0.703125 -0.0625 C 0.765625 -0.09375 0.804688 -0.144531 0.828125 -0.21875 L 0.84375 -0.21875 L 0.78125 0 L 0.046875 0 Z M 0.046875 -0.015625 "/></g></g></g><g fill="#000000" fill-opacity="1"><g transform="translate(78.48831, 519.216655)"><g><path d="M 0.484375 0 C 0.421875 0 0.363281 -0.0078125 0.3125 -0.03125 C 0.257812 -0.0507812 0.210938 -0.0820312 0.171875 -0.125 C 0.140625 -0.164062 0.109375 -0.210938 0.078125 -0.265625 C 0.0546875 -0.316406 0.046875 -0.375 0.046875 -0.4375 C 0.046875 -0.5 0.0546875 -0.554688 0.078125 -0.609375 C 0.109375 -0.660156 0.140625 -0.707031 0.171875 -0.75 C 0.210938 -0.789062 0.257812 -0.820312 0.3125 -0.84375 C 0.363281 -0.863281 0.421875 -0.875 0.484375 -0.875 C 0.546875 -0.875 0.601562 -0.863281 0.65625 -0.84375 C 0.707031 -0.820312 0.753906 -0.789062 0.796875 -0.75 C 0.835938 -0.707031 0.867188 -0.660156 0.890625 -0.609375 C 0.910156 -0.554688 0.921875 -0.5 0.921875 -0.4375 C 0.921875 -0.375 0.910156 -0.316406 0.890625 -0.265625 C 0.867188 -0.210938 0.835938 -0.164062 0.796875 -0.125 C 0.753906 -0.0820312 0.707031 -0.0507812 0.65625 -0.03125 C 0.601562 -0.0078125 0.546875 0 0.484375 0 Z M 0.484375 -0.015625 C 0.492188 -0.015625 0.507812 -0.015625 0.53125 -0.015625 C 0.550781 -0.0234375 0.570312 -0.0351562 0.59375 -0.046875 C 0.613281 -0.0664062 0.632812 -0.0859375 0.65625 -0.109375 C 0.675781 -0.140625 0.691406 -0.179688 0.703125 -0.234375 C 0.710938 -0.285156 0.71875 -0.351562 0.71875 -0.4375 C 0.71875 -0.507812 0.710938 -0.570312 0.703125 -0.625 C 0.691406 -0.675781 0.675781 -0.71875 0.65625 -0.75 C 0.632812 -0.78125 0.613281 -0.800781 0.59375 -0.8125 C 0.570312 -0.832031 0.550781 -0.84375 0.53125 -0.84375 C 0.507812 -0.851562 0.492188 -0.859375 0.484375 -0.859375 C 0.472656 -0.859375 0.457031 -0.851562 0.4375 -0.84375 C 0.414062 -0.84375 0.394531 -0.832031 0.375 -0.8125 C 0.351562 -0.800781 0.332031 -0.78125 0.3125 -0.75 C 0.300781 -0.71875 0.285156 -0.675781 0.265625 -0.625 C 0.253906 -0.570312 0.25 -0.507812 0.25 -0.4375 C 0.25 -0.351562 0.253906 -0.285156 0.265625 -0.234375 C 0.285156 -0.179688 0.300781 -0.140625 0.3125 -0.109375 C 0.332031 -0.0859375 0.351562 -0.0664062 0.375 -0.046875 C 0.394531 -0.0351562 0.414062 -0.0234375 0.4375 -0.015625 C 0.457031 -0.015625 0.472656 -0.015625 0.484375 -0.015625 Z M 0.484375 -0.015625 "/></g></g></g></svg>