<svg xmlns="http://www.w3.org/2000/svg" xmlns:xlink="http://www.w3.org/1999/xlink" width="1366" zoomAndPan="magnify" viewBox="0 0 1024.5 576" height="768" preserveAspectRatio="xMidYMid meet" version="1.0"><defs><clipPath id="9d98da5376"><path d="M 290.988281 154.566406 L 733.273438 154.566406 L 733.273438 421.433594 L 290.988281 421.433594 Z M 290.988281 154.566406 " clip-rule="nonzero"/></clipPath></defs><path fill="#004d29" d="M 502.488281 346.582031 L 453.796875 346.582031 C 448.472656 346.582031 444.667969 350.382812 444.667969 355.710938 L 444.667969 382.335938 C 444.667969 387.664062 448.472656 391.464844 453.796875 391.464844 L 502.488281 391.464844 C 507.8125 391.464844 511.617188 387.664062 511.617188 382.335938 L 511.617188 355.710938 C 511.617188 350.382812 507.050781 346.582031 502.488281 346.582031 Z M 496.402344 376.25 L 459.882812 376.25 L 459.882812 361.796875 L 496.402344 361.796875 Z M 496.402344 376.25 " fill-opacity="1" fill-rule="nonzero"/><path fill="#004d29" d="M 469.011719 309.300781 L 470.535156 307.78125 L 470.535156 326.039062 C 470.535156 330.605469 473.578125 333.648438 478.140625 333.648438 C 482.707031 333.648438 485.75 330.605469 485.75 326.039062 L 485.75 307.78125 L 487.273438 309.300781 C 488.792969 310.824219 491.074219 311.585938 492.597656 311.585938 C 494.117188 311.585938 496.402344 310.824219 497.921875 309.300781 C 500.964844 306.257812 500.964844 301.695312 497.921875 298.652344 L 483.46875 284.195312 C 480.425781 281.152344 475.859375 281.152344 472.816406 284.195312 L 458.363281 298.652344 C 455.320312 301.695312 455.320312 306.257812 458.363281 309.300781 C 461.40625 312.34375 465.96875 312.34375 469.011719 309.300781 Z M 469.011719 309.300781 " fill-opacity="1" fill-rule="nonzero"/><g clip-path="url(#9d98da5376)"><path fill="#004d29" d="M 730.722656 248.4375 L 709.421875 211.921875 C 707.136719 208.117188 702.574219 205.074219 698.007812 205.074219 L 560.308594 205.074219 C 555.742188 205.074219 551.175781 207.355469 548.894531 211.921875 L 541.289062 225.617188 L 541.289062 214.203125 C 541.289062 211.921875 540.527344 209.640625 539.765625 207.355469 L 513.136719 161.710938 C 510.855469 157.90625 506.292969 154.863281 501.726562 154.863281 L 331.3125 154.863281 C 326.746094 154.863281 322.183594 157.144531 319.898438 161.710938 L 293.273438 207.355469 C 291.75 209.640625 290.988281 211.921875 290.988281 214.203125 L 290.988281 407.441406 C 290.988281 415.050781 297.074219 421.136719 304.683594 421.136719 L 719.308594 421.136719 C 726.917969 421.136719 733.003906 415.050781 733.003906 407.441406 L 733.003906 255.285156 C 732.242188 253.003906 731.484375 250.722656 730.722656 248.4375 Z M 711.703125 246.15625 L 654.644531 246.15625 L 650.839844 221.050781 L 697.246094 221.050781 Z M 641.710938 262.132812 L 641.710938 286.476562 L 634.101562 280.390625 C 631.058594 278.109375 626.496094 278.109375 623.453125 280.390625 L 615.84375 286.476562 L 615.84375 260.613281 L 641.710938 260.613281 Z M 618.125 246.15625 L 621.929688 221.050781 L 634.101562 221.050781 L 637.90625 246.15625 Z M 561.066406 221.050781 L 607.476562 221.050781 L 602.910156 246.15625 L 545.851562 246.15625 Z M 519.984375 205.074219 L 447.710938 205.074219 L 440.863281 170.839844 L 500.203125 170.839844 Z M 410.433594 237.789062 L 399.019531 246.917969 L 399.019531 220.289062 L 434.015625 220.289062 L 434.015625 246.917969 L 422.605469 237.789062 C 418.039062 235.507812 413.476562 235.507812 410.433594 237.789062 Z M 399.78125 205.074219 L 406.628906 170.839844 L 424.886719 170.839844 L 431.734375 205.074219 Z M 332.070312 170.078125 L 391.414062 170.078125 L 384.566406 204.3125 L 311.53125 204.3125 Z M 306.207031 405.921875 L 306.207031 220.289062 L 383.042969 220.289062 L 383.042969 259.089844 C 383.042969 262.894531 385.328125 265.9375 388.371094 267.457031 C 389.890625 268.21875 391.414062 268.21875 392.175781 268.21875 C 394.457031 268.21875 395.976562 267.457031 397.5 265.9375 L 414.996094 252.242188 L 432.496094 265.9375 C 435.539062 268.21875 439.34375 268.21875 442.386719 266.699219 C 445.429688 265.175781 447.710938 262.132812 447.710938 258.328125 L 447.710938 219.53125 L 524.550781 219.53125 L 524.550781 405.160156 L 306.207031 405.160156 Z M 540.527344 405.921875 L 540.527344 261.371094 L 600.628906 261.371094 L 600.628906 299.410156 C 600.628906 303.214844 602.910156 306.257812 605.953125 307.78125 C 608.996094 309.300781 612.800781 309.300781 615.082031 307.019531 L 628.777344 296.367188 L 642.472656 307.019531 C 643.992188 308.542969 646.273438 308.542969 647.796875 308.542969 C 649.320312 308.542969 650.839844 308.542969 651.601562 307.78125 C 654.644531 306.257812 656.925781 303.214844 656.925781 299.410156 L 656.925781 261.371094 L 717.027344 261.371094 L 717.027344 405.160156 L 540.527344 405.160156 Z M 540.527344 405.921875 " fill-opacity="1" fill-rule="nonzero"/></g><path fill="#004d29" d="M 575.523438 343.535156 C 572.480469 340.492188 567.914062 340.492188 564.871094 343.535156 L 552.699219 355.710938 C 549.65625 358.753906 549.65625 363.316406 552.699219 366.359375 C 554.21875 367.882812 556.503906 368.644531 558.023438 368.644531 C 559.546875 368.644531 561.066406 367.882812 562.589844 367.121094 L 562.589844 387.664062 C 562.589844 392.226562 565.632812 395.269531 570.195312 395.269531 C 574.761719 395.269531 577.804688 392.226562 577.804688 387.664062 L 577.804688 367.121094 C 580.847656 369.402344 584.652344 368.644531 587.695312 366.359375 C 590.738281 363.316406 590.738281 358.753906 587.695312 355.710938 Z M 575.523438 343.535156 " fill-opacity="1" fill-rule="nonzero"/><path fill="#004d29" d="M 376.199219 376.25 L 327.507812 376.25 C 322.941406 376.25 319.898438 379.292969 319.898438 383.859375 C 319.898438 388.421875 322.941406 391.464844 327.507812 391.464844 L 376.199219 391.464844 C 380.761719 391.464844 383.804688 388.421875 383.804688 383.859375 C 383.804688 379.292969 380.761719 376.25 376.199219 376.25 Z M 376.199219 376.25 " fill-opacity="1" fill-rule="nonzero"/><path fill="#004d29" d="M 376.199219 347.339844 L 327.507812 347.339844 C 322.941406 347.339844 319.898438 350.382812 319.898438 354.949219 C 319.898438 359.511719 322.941406 362.554688 327.507812 362.554688 L 376.199219 362.554688 C 380.761719 362.554688 383.804688 359.511719 383.804688 354.949219 C 383.804688 350.382812 380.761719 347.339844 376.199219 347.339844 Z M 376.199219 347.339844 " fill-opacity="1" fill-rule="nonzero"/><path fill="#004d29" d="M 376.199219 318.429688 L 327.507812 318.429688 C 322.941406 318.429688 319.898438 321.472656 319.898438 326.039062 C 319.898438 330.605469 322.941406 333.648438 327.507812 333.648438 L 376.199219 333.648438 C 380.761719 333.648438 383.804688 330.605469 383.804688 326.039062 C 383.804688 321.472656 380.761719 318.429688 376.199219 318.429688 Z M 376.199219 318.429688 " fill-opacity="1" fill-rule="nonzero"/></svg>