<svg xmlns="http://www.w3.org/2000/svg" xmlns:xlink="http://www.w3.org/1999/xlink" width="1366" zoomAndPan="magnify" viewBox="0 0 1024.5 576" height="768" preserveAspectRatio="xMidYMid meet" version="1.0"><defs><clipPath id="1c2878e765"><path d="M 289.070312 65.070312 L 734.929688 65.070312 L 734.929688 510.929688 L 289.070312 510.929688 Z M 289.070312 65.070312 " clip-rule="nonzero"/></clipPath><clipPath id="ca5caf17f6"><path d="M 512 65.070312 L 555.273438 126.5 L 623.464844 94.9375 L 630.226562 169.773438 L 705.0625 176.535156 L 673.5 244.726562 L 734.929688 288 L 673.5 331.273438 L 705.0625 399.464844 L 630.226562 406.226562 L 623.464844 481.0625 L 555.273438 449.5 L 512 510.929688 L 468.726562 449.5 L 400.535156 481.0625 L 393.773438 406.226562 L 318.9375 399.464844 L 350.5 331.273438 L 289.070312 288 L 350.5 244.726562 L 318.9375 176.535156 L 393.773438 169.773438 L 400.535156 94.9375 L 468.726562 126.5 Z M 512 65.070312 " clip-rule="nonzero"/></clipPath><clipPath id="2b34cc9c9c"><path d="M 289.070312 65.070312 L 732.144531 65.070312 L 732.144531 508.144531 L 289.070312 508.144531 Z M 289.070312 65.070312 " clip-rule="nonzero"/></clipPath><clipPath id="aa800b274d"><path d="M 511.992188 65.070312 L 555.261719 126.496094 L 623.453125 94.933594 L 630.210938 169.769531 L 705.046875 176.53125 L 673.484375 244.71875 L 734.910156 287.992188 L 673.484375 331.261719 L 705.046875 399.449219 L 630.210938 406.210938 L 623.453125 481.046875 L 555.261719 449.484375 L 511.992188 510.910156 L 468.71875 449.484375 L 400.53125 481.046875 L 393.769531 406.210938 L 318.933594 399.449219 L 350.496094 331.261719 L 289.070312 287.992188 L 350.496094 244.71875 L 318.933594 176.53125 L 393.769531 169.769531 L 400.53125 94.933594 L 468.71875 126.496094 Z M 511.992188 65.070312 " clip-rule="nonzero"/></clipPath><clipPath id="264dd6fe69"><path d="M 457 198 L 577.164062 198 L 577.164062 378 L 457 378 Z M 457 198 " clip-rule="nonzero"/></clipPath></defs><g clip-path="url(#1c2878e765)"><g clip-path="url(#ca5caf17f6)"><path fill="#f8e9a6" d="M 289.070312 65.070312 L 734.929688 65.070312 L 734.929688 510.929688 L 289.070312 510.929688 Z M 289.070312 65.070312 " fill-opacity="1" fill-rule="nonzero"/></g></g><g clip-path="url(#2b34cc9c9c)"><g clip-path="url(#aa800b274d)"><path stroke-linecap="butt" transform="matrix(7.384558, 0, 0, 7.384558, 289.069223, 65.069144)" fill="none" stroke-linejoin="miter" d="M 30.187719 0.000158192 L 36.04718 8.318297 L 45.281505 4.044176 L 46.196632 14.178287 L 56.330744 15.093944 L 52.056622 24.327739 L 60.374761 30.18773 L 52.056622 36.047191 L 56.330744 45.280986 L 46.196632 46.196643 L 45.281505 56.330755 L 36.04718 52.056633 L 30.187719 60.374772 L 24.327729 52.056633 L 15.093933 56.330755 L 14.178277 46.196643 L 4.044165 45.280986 L 8.318287 36.047191 L 0.000147598 30.18773 L 8.318287 24.327739 L 4.044165 15.093944 L 14.178277 14.178287 L 15.093933 4.044176 L 24.327729 8.318297 Z M 30.187719 0.000158192 " stroke="#004d29" stroke-width="5.075687" stroke-opacity="1" stroke-miterlimit="4"/></g></g><g clip-path="url(#264dd6fe69)"><path fill="#004d29" d="M 579.703125 289.398438 L 494.5 203.328125 C 478.042969 186.703125 444.246094 217.457031 464.070312 236.800781 L 517.972656 289.398438 L 462.332031 341.128906 C 445.390625 356.882812 476.773438 389.207031 493.632812 372.863281 Z M 579.703125 289.398438 " fill-opacity="1" fill-rule="nonzero"/></g></svg>