<svg xmlns="http://www.w3.org/2000/svg" xmlns:xlink="http://www.w3.org/1999/xlink" width="1366" zoomAndPan="magnify" viewBox="0 0 1024.5 576" height="768" preserveAspectRatio="xMidYMid meet" version="1.0"><path fill="#ffffff" d="M 457.886719 22.796875 C 492.878906 0.234375 540.878906 0.183594 575.820312 22.851562 C 609.261719 42.855469 630.4375 80.671875 631.027344 119.558594 C 658.867188 119.828125 686.714844 119.402344 714.558594 119.714844 C 729.542969 118.542969 743.683594 130.589844 744.53125 145.640625 C 763.410156 277.546875 782.246094 409.515625 800.75 541.472656 C 804.644531 558.332031 789.976562 575.875 772.589844 574.65625 C 602.003906 574.921875 431.371094 574.871094 260.734375 574.707031 C 243.453125 575.824219 228.890625 558.488281 232.519531 541.691406 C 251.242188 409.785156 270.070312 277.816406 289.007812 145.960938 C 289.972656 131.023438 303.675781 118.648438 318.722656 119.714844 C 346.675781 119.339844 374.621094 119.871094 402.523438 119.660156 C 403.269531 80.726562 424.332031 42.855469 457.886719 22.796875 Z M 459.003906 119.445312 C 497.566406 119.871094 536.078125 119.660156 574.640625 119.445312 C 573.097656 89.359375 547.917969 61.839844 516.816406 62.75 C 485.785156 61.839844 460.503906 89.316406 459.003906 119.445312 Z M 459.003906 119.445312 " fill-opacity="1" fill-rule="nonzero"/></svg>