<svg xmlns="http://www.w3.org/2000/svg" xmlns:xlink="http://www.w3.org/1999/xlink" width="1366" zoomAndPan="magnify" viewBox="0 0 1024.5 576" height="768" preserveAspectRatio="xMidYMid meet" version="1.0"><defs><clipPath id="31cd0bda24"><path d="M 309.328125 85.328125 L 714.878906 85.328125 L 714.878906 490.878906 L 309.328125 490.878906 Z M 309.328125 85.328125 " clip-rule="nonzero"/></clipPath></defs><g clip-path="url(#31cd0bda24)"><path fill="#bc8741" d="M 512 85.328125 C 508.679688 85.328125 505.367188 85.410156 502.054688 85.570312 C 498.742188 85.734375 495.433594 85.980469 492.132812 86.304688 C 488.832031 86.628906 485.542969 87.035156 482.261719 87.519531 C 478.980469 88.007812 475.710938 88.574219 472.460938 89.222656 C 469.207031 89.867188 465.972656 90.59375 462.753906 91.402344 C 459.535156 92.207031 456.339844 93.09375 453.167969 94.054688 C 449.992188 95.015625 446.84375 96.058594 443.722656 97.175781 C 440.597656 98.292969 437.503906 99.484375 434.441406 100.753906 C 431.375 102.023438 428.34375 103.367188 425.34375 104.785156 C 422.347656 106.203125 419.386719 107.695312 416.460938 109.257812 C 413.535156 110.824219 410.648438 112.457031 407.804688 114.160156 C 404.960938 115.867188 402.160156 117.640625 399.402344 119.484375 C 396.644531 121.328125 393.933594 123.234375 391.269531 125.210938 C 388.605469 127.1875 385.988281 129.226562 383.425781 131.332031 C 380.863281 133.4375 378.351562 135.601562 375.894531 137.828125 C 373.433594 140.058594 371.035156 142.34375 368.6875 144.6875 C 366.34375 147.035156 364.058594 149.433594 361.828125 151.894531 C 359.601562 154.351562 357.4375 156.863281 355.332031 159.425781 C 353.226562 161.988281 351.1875 164.601562 349.210938 167.269531 C 347.234375 169.933594 345.328125 172.644531 343.484375 175.402344 C 341.640625 178.160156 339.867188 180.960938 338.160156 183.804688 C 336.457031 186.648438 334.824219 189.535156 333.257812 192.460938 C 331.695312 195.386719 330.203125 198.347656 328.785156 201.34375 C 327.367188 204.34375 326.023438 207.375 324.753906 210.441406 C 323.484375 213.503906 322.292969 216.597656 321.175781 219.71875 C 320.058594 222.84375 319.019531 225.992188 318.054688 229.167969 C 317.09375 232.339844 316.207031 235.535156 315.402344 238.753906 C 314.59375 241.972656 313.871094 245.207031 313.222656 248.460938 C 312.574219 251.710938 312.007812 254.980469 311.519531 258.261719 C 311.035156 261.542969 310.628906 264.832031 310.304688 268.132812 C 309.980469 271.433594 309.734375 274.742188 309.570312 278.054688 C 309.410156 281.367188 309.328125 284.679688 309.328125 288 C 309.328125 291.316406 309.410156 294.628906 309.570312 297.941406 C 309.734375 301.253906 309.980469 304.5625 310.304688 307.863281 C 310.628906 311.164062 311.035156 314.457031 311.519531 317.734375 C 312.007812 321.015625 312.574219 324.285156 313.222656 327.539062 C 313.871094 330.789062 314.59375 334.027344 315.402344 337.242188 C 316.207031 340.460938 317.09375 343.65625 318.054688 346.832031 C 319.019531 350.003906 320.058594 353.152344 321.175781 356.277344 C 322.292969 359.398438 323.484375 362.492188 324.753906 365.558594 C 326.023438 368.621094 327.367188 371.652344 328.785156 374.652344 C 330.203125 377.648438 331.695312 380.613281 333.257812 383.535156 C 334.824219 386.460938 336.457031 389.347656 338.160156 392.191406 C 339.867188 395.035156 341.640625 397.839844 343.484375 400.597656 C 345.328125 403.355469 347.234375 406.066406 349.210938 408.730469 C 351.1875 411.394531 353.226562 414.007812 355.332031 416.570312 C 357.4375 419.136719 359.601562 421.644531 361.828125 424.105469 C 364.058594 426.5625 366.34375 428.960938 368.6875 431.308594 C 371.035156 433.652344 373.433594 435.941406 375.894531 438.167969 C 378.351562 440.394531 380.863281 442.5625 383.425781 444.664062 C 385.988281 446.769531 388.605469 448.808594 391.269531 450.785156 C 393.933594 452.761719 396.644531 454.671875 399.402344 456.511719 C 402.160156 458.355469 404.960938 460.128906 407.804688 461.835938 C 410.648438 463.539062 413.535156 465.175781 416.460938 466.738281 C 419.386719 468.300781 422.347656 469.792969 425.34375 471.210938 C 428.34375 472.628906 431.375 473.972656 434.441406 475.242188 C 437.503906 476.511719 440.597656 477.703125 443.722656 478.820312 C 446.84375 479.9375 449.992188 480.980469 453.167969 481.941406 C 456.339844 482.90625 459.535156 483.789062 462.753906 484.59375 C 465.972656 485.402344 469.207031 486.128906 472.460938 486.773438 C 475.710938 487.421875 478.980469 487.988281 482.261719 488.476562 C 485.542969 488.960938 488.832031 489.367188 492.132812 489.691406 C 495.433594 490.019531 498.742188 490.261719 502.054688 490.425781 C 505.367188 490.585938 508.679688 490.667969 512 490.667969 C 515.316406 490.667969 518.628906 490.585938 521.941406 490.425781 C 525.257812 490.261719 528.5625 490.019531 531.863281 489.691406 C 535.164062 489.367188 538.457031 488.960938 541.738281 488.476562 C 545.015625 487.988281 548.285156 487.421875 551.539062 486.773438 C 554.789062 486.128906 558.027344 485.402344 561.242188 484.59375 C 564.460938 483.789062 567.65625 482.90625 570.832031 481.941406 C 574.003906 480.980469 577.152344 479.9375 580.277344 478.820312 C 583.398438 477.703125 586.492188 476.511719 589.558594 475.242188 C 592.621094 473.972656 595.652344 472.628906 598.652344 471.210938 C 601.648438 469.792969 604.613281 468.300781 607.535156 466.738281 C 610.460938 465.175781 613.347656 463.539062 616.191406 461.835938 C 619.035156 460.128906 621.839844 458.355469 624.597656 456.511719 C 627.355469 454.671875 630.066406 452.761719 632.730469 450.785156 C 635.394531 448.808594 638.007812 446.769531 640.570312 444.664062 C 643.136719 442.5625 645.644531 440.394531 648.105469 438.167969 C 650.5625 435.941406 652.960938 433.652344 655.308594 431.308594 C 657.652344 428.960938 659.941406 426.5625 662.167969 424.105469 C 664.394531 421.644531 666.5625 419.136719 668.664062 416.570312 C 670.769531 414.007812 672.808594 411.394531 674.785156 408.730469 C 676.761719 406.066406 678.671875 403.355469 680.511719 400.597656 C 682.355469 397.839844 684.128906 395.035156 685.835938 392.191406 C 687.539062 389.347656 689.175781 386.460938 690.738281 383.535156 C 692.300781 380.613281 693.792969 377.648438 695.210938 374.652344 C 696.628906 371.652344 697.972656 368.621094 699.242188 365.558594 C 700.511719 362.492188 701.703125 359.398438 702.820312 356.277344 C 703.9375 353.152344 704.980469 350.003906 705.941406 346.832031 C 706.90625 343.65625 707.789062 340.460938 708.59375 337.242188 C 709.402344 334.027344 710.128906 330.789062 710.773438 327.539062 C 711.421875 324.285156 711.988281 321.015625 712.476562 317.734375 C 712.960938 314.457031 713.367188 311.164062 713.691406 307.863281 C 714.019531 304.5625 714.261719 301.253906 714.425781 297.941406 C 714.585938 294.628906 714.667969 291.316406 714.667969 288 C 714.667969 284.679688 714.585938 281.367188 714.421875 278.054688 C 714.261719 274.742188 714.015625 271.433594 713.691406 268.132812 C 713.367188 264.832031 712.960938 261.542969 712.472656 258.261719 C 711.984375 254.980469 711.417969 251.714844 710.769531 248.460938 C 710.125 245.207031 709.394531 241.972656 708.589844 238.753906 C 707.785156 235.539062 706.898438 232.34375 705.9375 229.167969 C 704.972656 225.996094 703.933594 222.847656 702.816406 219.722656 C 701.699219 216.601562 700.503906 213.507812 699.234375 210.445312 C 697.964844 207.378906 696.621094 204.347656 695.203125 201.351562 C 693.785156 198.351562 692.292969 195.390625 690.730469 192.464844 C 689.167969 189.539062 687.53125 186.65625 685.828125 183.808594 C 684.121094 180.964844 682.347656 178.164062 680.503906 175.40625 C 678.664062 172.648438 676.753906 169.9375 674.777344 167.273438 C 672.800781 164.609375 670.761719 161.996094 668.65625 159.433594 C 666.554688 156.867188 664.386719 154.359375 662.160156 151.898438 C 659.933594 149.441406 657.644531 147.042969 655.300781 144.695312 C 652.957031 142.351562 650.554688 140.0625 648.097656 137.835938 C 645.640625 135.609375 643.128906 133.445312 640.566406 131.339844 C 638 129.234375 635.386719 127.195312 632.722656 125.21875 C 630.058594 123.242188 627.347656 121.335938 624.589844 119.492188 C 621.832031 117.648438 619.03125 115.875 616.1875 114.167969 C 613.339844 112.464844 610.457031 110.828125 607.53125 109.265625 C 604.605469 107.703125 601.644531 106.210938 598.648438 104.792969 C 595.648438 103.375 592.617188 102.03125 589.554688 100.761719 C 586.488281 99.492188 583.394531 98.300781 580.273438 97.179688 C 577.148438 96.0625 574 95.023438 570.828125 94.058594 C 567.652344 93.097656 564.457031 92.210938 561.242188 91.40625 C 558.023438 90.601562 554.789062 89.875 551.535156 89.226562 C 548.28125 88.578125 545.015625 88.011719 541.734375 87.523438 C 538.453125 87.039062 535.164062 86.632812 531.863281 86.304688 C 528.5625 85.980469 525.253906 85.734375 521.941406 85.574219 C 518.628906 85.410156 515.316406 85.328125 512 85.328125 Z M 512 161.328125 C 513.199219 161.328125 514.394531 161.363281 515.59375 161.429688 C 516.789062 161.5 517.984375 161.601562 519.175781 161.742188 C 520.367188 161.878906 521.550781 162.050781 522.734375 162.257812 C 523.914062 162.464844 525.089844 162.703125 526.253906 162.980469 C 527.421875 163.253906 528.582031 163.5625 529.730469 163.902344 C 530.878906 164.242188 532.019531 164.617188 533.144531 165.027344 C 534.273438 165.433594 535.386719 165.871094 536.492188 166.34375 C 537.59375 166.816406 538.679688 167.320312 539.753906 167.855469 C 540.828125 168.390625 541.882812 168.953125 542.925781 169.550781 C 543.964844 170.144531 544.988281 170.769531 545.992188 171.425781 C 546.996094 172.082031 547.980469 172.765625 548.945312 173.476562 C 549.910156 174.1875 550.851562 174.929688 551.773438 175.695312 C 552.695312 176.460938 553.59375 177.253906 554.472656 178.074219 C 555.347656 178.890625 556.199219 179.734375 557.027344 180.601562 C 557.851562 181.46875 558.65625 182.363281 559.429688 183.277344 C 560.207031 184.191406 560.953125 185.125 561.675781 186.082031 C 562.398438 187.042969 563.089844 188.019531 563.757812 189.015625 C 564.421875 190.015625 565.054688 191.03125 565.664062 192.066406 C 566.269531 193.097656 566.84375 194.148438 567.390625 195.21875 C 567.933594 196.285156 568.449219 197.367188 568.933594 198.464844 C 569.414062 199.5625 569.867188 200.675781 570.285156 201.796875 C 570.703125 202.921875 571.085938 204.054688 571.441406 205.203125 C 571.792969 206.347656 572.113281 207.503906 572.398438 208.667969 C 572.683594 209.832031 572.9375 211.003906 573.15625 212.183594 C 573.371094 213.363281 573.558594 214.546875 573.707031 215.734375 C 573.855469 216.925781 573.972656 218.117188 574.050781 219.3125 C 574.132812 220.511719 574.179688 221.707031 574.191406 222.90625 C 574.199219 224.105469 574.175781 225.304688 574.121094 226.503906 C 574.0625 227.699219 573.96875 228.894531 573.839844 230.085938 C 573.714844 231.277344 573.550781 232.464844 573.355469 233.648438 C 573.160156 234.832031 572.929688 236.007812 572.667969 237.179688 C 572.402344 238.347656 572.105469 239.507812 571.773438 240.660156 C 571.441406 241.8125 571.078125 242.953125 570.683594 244.085938 C 570.285156 245.21875 569.855469 246.335938 569.394531 247.441406 C 568.929688 248.550781 568.4375 249.640625 567.914062 250.71875 C 567.386719 251.796875 566.832031 252.859375 566.246094 253.90625 C 565.65625 254.949219 565.042969 255.976562 564.394531 256.988281 C 563.75 258 563.074219 258.988281 562.371094 259.960938 C 561.667969 260.929688 560.9375 261.878906 560.179688 262.808594 C 559.421875 263.738281 558.636719 264.644531 557.824219 265.527344 C 557.015625 266.410156 556.179688 267.269531 555.316406 268.105469 C 554.457031 268.941406 553.574219 269.75 552.667969 270.53125 C 551.757812 271.316406 550.828125 272.074219 549.878906 272.804688 C 548.929688 273.535156 547.957031 274.234375 546.964844 274.910156 C 545.972656 275.582031 544.960938 276.226562 543.933594 276.84375 C 542.90625 277.457031 541.859375 278.042969 540.796875 278.597656 C 539.734375 279.152344 538.65625 279.675781 537.5625 280.167969 C 536.46875 280.660156 535.363281 281.121094 534.242188 281.550781 C 533.121094 281.980469 531.992188 282.375 530.847656 282.738281 C 529.707031 283.101562 528.554688 283.429688 527.390625 283.726562 C 526.230469 284.023438 525.058594 284.285156 523.882812 284.515625 C 522.707031 284.742188 521.523438 284.9375 520.335938 285.097656 C 519.148438 285.257812 517.957031 285.382812 516.757812 285.476562 C 515.5625 285.566406 514.367188 285.621094 513.167969 285.644531 C 511.96875 285.667969 510.769531 285.652344 509.574219 285.605469 C 508.375 285.558594 507.179688 285.476562 505.984375 285.359375 C 504.792969 285.242188 503.605469 285.09375 502.417969 284.90625 C 501.234375 284.722656 500.054688 284.503906 498.882812 284.25 C 497.710938 283.996094 496.550781 283.707031 495.394531 283.386719 C 494.238281 283.066406 493.09375 282.710938 491.957031 282.324219 C 490.824219 281.9375 489.699219 281.519531 488.589844 281.066406 C 487.480469 280.613281 486.382812 280.132812 485.300781 279.617188 C 484.21875 279.101562 483.152344 278.554688 482.101562 277.976562 C 481.050781 277.398438 480.015625 276.792969 479 276.15625 C 426.8125 243.09375 449.425781 161.960938 512 161.328125 Z M 584.898438 414.667969 L 439.101562 414.667969 C 437.597656 414.664062 436.09375 414.589844 434.597656 414.4375 C 433.101562 414.289062 431.617188 414.066406 430.140625 413.769531 C 428.664062 413.472656 427.207031 413.105469 425.769531 412.667969 C 424.332031 412.226562 422.917969 411.71875 421.527344 411.144531 C 420.136719 410.566406 418.78125 409.921875 417.453125 409.210938 C 416.128906 408.5 414.839844 407.726562 413.589844 406.890625 C 412.339844 406.050781 411.132812 405.15625 409.972656 404.199219 C 408.808594 403.246094 407.699219 402.234375 406.636719 401.171875 C 405.570312 400.105469 404.5625 398.992188 403.609375 397.828125 C 402.65625 396.664062 401.761719 395.457031 400.925781 394.207031 C 400.089844 392.957031 399.320312 391.667969 398.609375 390.339844 C 397.902344 389.011719 397.257812 387.652344 396.683594 386.265625 C 396.109375 384.875 395.601562 383.460938 395.164062 382.019531 C 394.726562 380.582031 394.363281 379.121094 394.070312 377.648438 C 393.773438 376.171875 393.554688 374.6875 393.40625 373.1875 C 393.257812 371.691406 393.183594 370.191406 393.183594 368.6875 C 393.183594 329.734375 421.875 296.105469 463.039062 280.96875 C 464.734375 282.402344 466.488281 283.757812 468.300781 285.035156 C 470.117188 286.316406 471.980469 287.515625 473.898438 288.628906 C 475.816406 289.746094 477.78125 290.773438 479.789062 291.714844 C 481.800781 292.660156 483.84375 293.511719 485.929688 294.277344 C 488.011719 295.039062 490.125 295.710938 492.269531 296.289062 C 494.410156 296.863281 496.574219 297.347656 498.761719 297.734375 C 500.945312 298.121094 503.144531 298.414062 505.355469 298.609375 C 507.5625 298.800781 509.78125 298.898438 512 298.898438 C 514.21875 298.898438 516.433594 298.800781 518.644531 298.609375 C 520.855469 298.414062 523.050781 298.121094 525.238281 297.734375 C 527.421875 297.347656 529.585938 296.863281 531.726562 296.289062 C 533.871094 295.710938 535.984375 295.039062 538.066406 294.277344 C 540.152344 293.511719 542.199219 292.660156 544.207031 291.714844 C 546.214844 290.773438 548.179688 289.746094 550.097656 288.628906 C 552.015625 287.515625 553.882812 286.316406 555.695312 285.035156 C 557.507812 283.757812 559.261719 282.402344 560.957031 280.96875 C 602.125 296.105469 630.8125 329.734375 630.8125 368.6875 C 630.8125 370.191406 630.738281 371.691406 630.589844 373.1875 C 630.441406 374.6875 630.222656 376.171875 629.929688 377.648438 C 629.632812 379.121094 629.269531 380.582031 628.832031 382.019531 C 628.394531 383.460938 627.890625 384.875 627.3125 386.265625 C 626.738281 387.652344 626.097656 389.011719 625.386719 390.339844 C 624.679688 391.667969 623.90625 392.957031 623.070312 394.207031 C 622.234375 395.457031 621.339844 396.664062 620.386719 397.828125 C 619.433594 398.992188 618.425781 400.105469 617.363281 401.171875 C 616.300781 402.234375 615.1875 403.246094 614.023438 404.199219 C 612.863281 405.15625 611.65625 406.050781 610.40625 406.890625 C 609.15625 407.726562 607.867188 408.5 606.542969 409.210938 C 605.214844 409.921875 603.859375 410.566406 602.46875 411.144531 C 601.082031 411.71875 599.667969 412.226562 598.226562 412.667969 C 596.789062 413.105469 595.332031 413.472656 593.855469 413.769531 C 592.382812 414.066406 590.894531 414.289062 589.398438 414.4375 C 587.902344 414.589844 586.402344 414.664062 584.898438 414.667969 Z M 584.898438 414.667969 " fill-opacity="1" fill-rule="nonzero"/></g></svg>