<svg xmlns="http://www.w3.org/2000/svg" xmlns:xlink="http://www.w3.org/1999/xlink" width="1366" zoomAndPan="magnify" viewBox="0 0 1024.5 576" height="768" preserveAspectRatio="xMidYMid meet" version="1.0"><defs><clipPath id="41f0ad249d"><path d="M 519 288 L 680.425781 288 L 680.425781 473 L 519 473 Z M 519 288 " clip-rule="nonzero"/></clipPath><clipPath id="9d5946ab7a"><path d="M 343.839844 288 L 506 288 L 506 473 L 343.839844 473 Z M 343.839844 288 " clip-rule="nonzero"/></clipPath></defs><path fill="#bc8741" d="M 596.078125 187.101562 C 596.078125 188.480469 596.042969 189.855469 595.976562 191.230469 C 595.910156 192.601562 595.808594 193.976562 595.671875 195.34375 C 595.539062 196.714844 595.371094 198.078125 595.167969 199.441406 C 594.964844 200.800781 594.730469 202.15625 594.460938 203.507812 C 594.195312 204.855469 593.894531 206.199219 593.558594 207.53125 C 593.222656 208.867188 592.855469 210.191406 592.457031 211.511719 C 592.058594 212.828125 591.625 214.132812 591.164062 215.429688 C 590.699219 216.722656 590.203125 218.007812 589.679688 219.277344 C 589.152344 220.550781 588.59375 221.808594 588.003906 223.050781 C 587.417969 224.296875 586.800781 225.523438 586.148438 226.738281 C 585.5 227.953125 584.824219 229.148438 584.117188 230.328125 C 583.410156 231.507812 582.671875 232.671875 581.910156 233.816406 C 581.144531 234.960938 580.351562 236.082031 579.53125 237.1875 C 578.710938 238.292969 577.867188 239.378906 576.992188 240.441406 C 576.121094 241.507812 575.222656 242.546875 574.296875 243.566406 C 573.375 244.585938 572.425781 245.582031 571.453125 246.554688 C 570.480469 247.527344 569.484375 248.476562 568.464844 249.402344 C 567.445312 250.324219 566.402344 251.222656 565.339844 252.097656 C 564.273438 252.96875 563.191406 253.816406 562.085938 254.636719 C 560.980469 255.457031 559.855469 256.246094 558.710938 257.011719 C 557.566406 257.777344 556.40625 258.511719 555.222656 259.21875 C 554.042969 259.925781 552.847656 260.605469 551.632812 261.253906 C 550.421875 261.902344 549.191406 262.519531 547.949219 263.109375 C 546.703125 263.699219 545.445312 264.253906 544.175781 264.78125 C 542.902344 265.308594 541.621094 265.804688 540.324219 266.265625 C 539.027344 266.730469 537.722656 267.164062 536.40625 267.5625 C 535.089844 267.960938 533.761719 268.328125 532.429688 268.664062 C 531.09375 268.996094 529.75 269.296875 528.402344 269.566406 C 527.050781 269.835938 525.695312 270.070312 524.335938 270.273438 C 522.976562 270.472656 521.609375 270.640625 520.242188 270.777344 C 518.871094 270.914062 517.5 271.011719 516.125 271.082031 C 514.75 271.148438 513.375 271.183594 512 271.183594 C 510.625 271.183594 509.246094 271.148438 507.875 271.082031 C 506.5 271.011719 505.128906 270.914062 503.757812 270.777344 C 502.386719 270.640625 501.023438 270.472656 499.664062 270.273438 C 498.300781 270.070312 496.945312 269.835938 495.597656 269.566406 C 494.246094 269.296875 492.90625 268.996094 491.570312 268.664062 C 490.234375 268.328125 488.910156 267.960938 487.59375 267.5625 C 486.277344 267.164062 484.96875 266.730469 483.671875 266.265625 C 482.378906 265.804688 481.09375 265.308594 479.824219 264.78125 C 478.550781 264.253906 477.292969 263.699219 476.050781 263.109375 C 474.808594 262.519531 473.578125 261.902344 472.363281 261.253906 C 471.152344 260.605469 469.953125 259.925781 468.773438 259.21875 C 467.59375 258.511719 466.429688 257.777344 465.289062 257.011719 C 464.144531 256.246094 463.019531 255.457031 461.914062 254.636719 C 460.808594 253.816406 459.722656 252.96875 458.660156 252.097656 C 457.597656 251.222656 456.554688 250.324219 455.535156 249.402344 C 454.515625 248.476562 453.519531 247.527344 452.546875 246.554688 C 451.574219 245.582031 450.625 244.585938 449.699219 243.566406 C 448.777344 242.546875 447.878906 241.507812 447.003906 240.441406 C 446.132812 239.378906 445.285156 238.292969 444.464844 237.1875 C 443.648438 236.082031 442.855469 234.960938 442.089844 233.816406 C 441.324219 232.671875 440.589844 231.507812 439.882812 230.328125 C 439.175781 229.148438 438.496094 227.953125 437.847656 226.738281 C 437.199219 225.523438 436.582031 224.296875 435.992188 223.050781 C 435.402344 221.808594 434.847656 220.550781 434.320312 219.277344 C 433.792969 218.007812 433.296875 216.722656 432.835938 215.429688 C 432.371094 214.132812 431.941406 212.828125 431.539062 211.511719 C 431.140625 210.191406 430.773438 208.867188 430.441406 207.53125 C 430.105469 206.199219 429.804688 204.855469 429.535156 203.507812 C 429.265625 202.15625 429.03125 200.800781 428.832031 199.441406 C 428.628906 198.078125 428.460938 196.714844 428.324219 195.34375 C 428.191406 193.976562 428.089844 192.601562 428.019531 191.230469 C 427.953125 189.855469 427.921875 188.480469 427.921875 187.101562 C 427.921875 185.726562 427.953125 184.351562 428.019531 182.976562 C 428.089844 181.601562 428.191406 180.230469 428.324219 178.863281 C 428.460938 177.492188 428.628906 176.128906 428.832031 174.765625 C 429.03125 173.40625 429.265625 172.050781 429.535156 170.699219 C 429.804688 169.351562 430.105469 168.007812 430.441406 166.671875 C 430.773438 165.339844 431.140625 164.011719 431.539062 162.695312 C 431.941406 161.378906 432.371094 160.074219 432.835938 158.777344 C 433.296875 157.480469 433.792969 156.199219 434.320312 154.925781 C 434.847656 153.65625 435.402344 152.398438 435.992188 151.15625 C 436.582031 149.910156 437.199219 148.683594 437.847656 147.46875 C 438.496094 146.253906 439.175781 145.058594 439.882812 143.878906 C 440.589844 142.699219 441.324219 141.535156 442.089844 140.390625 C 442.855469 139.246094 443.648438 138.121094 444.464844 137.015625 C 445.285156 135.914062 446.132812 134.828125 447.003906 133.765625 C 447.878906 132.699219 448.777344 131.660156 449.699219 130.640625 C 450.625 129.621094 451.574219 128.625 452.546875 127.648438 C 453.519531 126.675781 454.515625 125.730469 455.535156 124.804688 C 456.554688 123.878906 457.597656 122.980469 458.660156 122.109375 C 459.722656 121.234375 460.808594 120.390625 461.914062 119.570312 C 463.019531 118.75 464.144531 117.957031 465.289062 117.195312 C 466.429688 116.429688 467.59375 115.695312 468.773438 114.984375 C 469.953125 114.277344 471.152344 113.601562 472.363281 112.953125 C 473.578125 112.304688 474.808594 111.683594 476.050781 111.097656 C 477.292969 110.507812 478.550781 109.949219 479.824219 109.425781 C 481.09375 108.898438 482.378906 108.402344 483.671875 107.9375 C 484.96875 107.476562 486.277344 107.042969 487.59375 106.644531 C 488.910156 106.246094 490.234375 105.878906 491.570312 105.542969 C 492.90625 105.210938 494.246094 104.90625 495.597656 104.640625 C 496.945312 104.371094 498.300781 104.136719 499.664062 103.933594 C 501.023438 103.730469 502.386719 103.5625 503.757812 103.429688 C 505.128906 103.292969 506.5 103.191406 507.875 103.125 C 509.246094 103.058594 510.625 103.023438 512 103.023438 C 513.375 103.023438 514.75 103.058594 516.125 103.125 C 517.5 103.191406 518.871094 103.292969 520.242188 103.429688 C 521.609375 103.5625 522.976562 103.730469 524.335938 103.933594 C 525.695312 104.136719 527.050781 104.371094 528.402344 104.640625 C 529.75 104.90625 531.09375 105.210938 532.429688 105.542969 C 533.761719 105.878906 535.089844 106.246094 536.40625 106.644531 C 537.722656 107.042969 539.027344 107.476562 540.324219 107.9375 C 541.621094 108.402344 542.902344 108.898438 544.175781 109.425781 C 545.445312 109.949219 546.703125 110.507812 547.949219 111.097656 C 549.191406 111.683594 550.421875 112.304688 551.632812 112.953125 C 552.847656 113.601562 554.042969 114.277344 555.222656 114.984375 C 556.40625 115.695312 557.566406 116.429688 558.710938 117.195312 C 559.855469 117.957031 560.980469 118.75 562.085938 119.570312 C 563.191406 120.390625 564.273438 121.234375 565.339844 122.109375 C 566.402344 122.980469 567.445312 123.878906 568.464844 124.804688 C 569.484375 125.730469 570.480469 126.675781 571.453125 127.648438 C 572.425781 128.625 573.375 129.621094 574.296875 130.640625 C 575.222656 131.660156 576.121094 132.699219 576.992188 133.765625 C 577.867188 134.828125 578.710938 135.914062 579.53125 137.015625 C 580.351562 138.121094 581.144531 139.246094 581.910156 140.390625 C 582.671875 141.535156 583.410156 142.699219 584.117188 143.878906 C 584.824219 145.058594 585.5 146.253906 586.148438 147.46875 C 586.800781 148.683594 587.417969 149.910156 588.003906 151.15625 C 588.59375 152.398438 589.152344 153.65625 589.679688 154.925781 C 590.203125 156.199219 590.699219 157.480469 591.164062 158.777344 C 591.625 160.074219 592.058594 161.378906 592.457031 162.695312 C 592.855469 164.011719 593.222656 165.339844 593.558594 166.671875 C 593.894531 168.007812 594.195312 169.351562 594.460938 170.699219 C 594.730469 172.050781 594.964844 173.40625 595.167969 174.765625 C 595.371094 176.128906 595.539062 177.492188 595.671875 178.863281 C 595.808594 180.230469 595.910156 181.601562 595.976562 182.976562 C 596.042969 184.351562 596.078125 185.726562 596.078125 187.101562 Z M 596.078125 187.101562 " fill-opacity="1" fill-rule="nonzero"/><path fill="#bc8741" d="M 543.277344 401 L 512 307.503906 L 480.722656 401 L 480.722656 401.167969 L 512 432.445312 L 543.277344 401.167969 Z M 543.277344 401 " fill-opacity="1" fill-rule="nonzero"/><g clip-path="url(#41f0ad249d)"><path fill="#bc8741" d="M 545.628906 288 L 540.921875 288 L 578.085938 399.320312 C 578.386719 400.085938 578.632812 400.871094 578.820312 401.675781 C 579.007812 402.476562 579.140625 403.289062 579.210938 404.113281 C 579.285156 404.933594 579.296875 405.757812 579.25 406.582031 C 579.203125 407.402344 579.097656 408.21875 578.9375 409.027344 C 578.773438 409.835938 578.554688 410.628906 578.277344 411.40625 C 578 412.183594 577.667969 412.9375 577.28125 413.667969 C 576.898438 414.394531 576.460938 415.09375 575.976562 415.761719 C 575.492188 416.429688 574.960938 417.058594 574.386719 417.648438 L 519.0625 472.972656 L 663.339844 472.972656 C 663.890625 472.96875 664.441406 472.941406 664.988281 472.886719 C 665.535156 472.832031 666.078125 472.75 666.617188 472.640625 C 667.160156 472.53125 667.691406 472.398438 668.21875 472.238281 C 668.742188 472.078125 669.261719 471.890625 669.769531 471.679688 C 670.277344 471.46875 670.773438 471.230469 671.257812 470.972656 C 671.742188 470.710938 672.214844 470.429688 672.671875 470.125 C 673.128906 469.816406 673.570312 469.488281 673.996094 469.140625 C 674.421875 468.789062 674.828125 468.421875 675.21875 468.03125 C 675.605469 467.644531 675.976562 467.238281 676.324219 466.8125 C 676.675781 466.386719 677.003906 465.945312 677.308594 465.488281 C 677.613281 465.03125 677.898438 464.558594 678.15625 464.074219 C 678.417969 463.589844 678.652344 463.09375 678.863281 462.582031 C 679.074219 462.074219 679.261719 461.558594 679.421875 461.03125 C 679.582031 460.507812 679.71875 459.972656 679.824219 459.433594 C 679.933594 458.894531 680.015625 458.351562 680.070312 457.804688 C 680.128906 457.253906 680.15625 456.707031 680.15625 456.15625 L 680.15625 422.523438 C 680.15625 420.324219 680.097656 418.125 679.988281 415.925781 C 679.875 413.726562 679.710938 411.535156 679.492188 409.34375 C 679.273438 407.15625 679.003906 404.972656 678.679688 402.792969 C 678.351562 400.617188 677.972656 398.449219 677.542969 396.292969 C 677.113281 394.132812 676.628906 391.988281 676.089844 389.851562 C 675.554688 387.71875 674.964844 385.597656 674.324219 383.492188 C 673.683594 381.386719 672.992188 379.300781 672.25 377.226562 C 671.507812 375.15625 670.714844 373.105469 669.871094 371.070312 C 669.027344 369.039062 668.132812 367.027344 667.191406 365.039062 C 666.25 363.050781 665.257812 361.085938 664.21875 359.144531 C 663.183594 357.203125 662.097656 355.289062 660.964844 353.402344 C 659.832031 351.515625 658.652344 349.65625 657.429688 347.828125 C 656.207031 346 654.941406 344.199219 653.628906 342.433594 C 652.316406 340.664062 650.964844 338.929688 649.566406 337.230469 C 648.171875 335.527344 646.734375 333.863281 645.253906 332.230469 C 643.777344 330.601562 642.257812 329.007812 640.703125 327.453125 C 639.148438 325.894531 637.554688 324.378906 635.921875 322.902344 C 634.292969 321.421875 632.625 319.984375 630.925781 318.589844 C 629.226562 317.191406 627.492188 315.839844 625.722656 314.527344 C 623.957031 313.214844 622.15625 311.949219 620.328125 310.722656 C 618.5 309.5 616.640625 308.324219 614.753906 307.191406 C 612.867188 306.058594 610.953125 304.972656 609.011719 303.933594 C 607.070312 302.898438 605.105469 301.90625 603.117188 300.964844 C 601.128906 300.023438 599.117188 299.128906 597.085938 298.285156 C 595.050781 297.441406 593 296.648438 590.925781 295.90625 C 588.855469 295.164062 586.765625 294.472656 584.660156 293.832031 C 582.554688 293.191406 580.4375 292.601562 578.300781 292.066406 C 576.167969 291.527344 574.019531 291.042969 571.863281 290.613281 C 569.707031 290.179688 567.539062 289.800781 565.359375 289.476562 C 563.183594 289.152344 561 288.878906 558.8125 288.660156 C 556.621094 288.445312 554.425781 288.277344 552.230469 288.167969 C 550.03125 288.058594 547.832031 288 545.628906 288 Z M 545.628906 288 " fill-opacity="1" fill-rule="nonzero"/></g><g clip-path="url(#9d5946ab7a)"><path fill="#bc8741" d="M 449.613281 417.648438 C 449.035156 417.058594 448.507812 416.429688 448.019531 415.761719 C 447.535156 415.09375 447.101562 414.394531 446.714844 413.667969 C 446.332031 412.9375 446 412.183594 445.722656 411.40625 C 445.445312 410.628906 445.226562 409.835938 445.0625 409.027344 C 444.898438 408.21875 444.792969 407.402344 444.746094 406.582031 C 444.703125 405.757812 444.714844 404.933594 444.785156 404.113281 C 444.859375 403.289062 444.988281 402.476562 445.179688 401.675781 C 445.367188 400.871094 445.613281 400.085938 445.914062 399.320312 L 483.074219 288 L 478.367188 288 C 476.167969 288 473.96875 288.058594 471.769531 288.167969 C 469.570312 288.277344 467.378906 288.445312 465.1875 288.660156 C 462.996094 288.878906 460.8125 289.152344 458.636719 289.476562 C 456.460938 289.800781 454.292969 290.179688 452.136719 290.613281 C 449.976562 291.042969 447.832031 291.527344 445.695312 292.066406 C 443.5625 292.601562 441.441406 293.191406 439.335938 293.832031 C 437.230469 294.472656 435.140625 295.164062 433.070312 295.90625 C 431 296.648438 428.945312 297.441406 426.914062 298.285156 C 424.882812 299.128906 422.871094 300.023438 420.882812 300.964844 C 418.890625 301.90625 416.929688 302.898438 414.988281 303.933594 C 413.046875 304.972656 411.132812 306.058594 409.246094 307.191406 C 407.359375 308.324219 405.5 309.5 403.671875 310.722656 C 401.839844 311.949219 400.042969 313.214844 398.273438 314.527344 C 396.507812 315.839844 394.773438 317.191406 393.074219 318.589844 C 391.371094 319.984375 389.707031 321.421875 388.074219 322.902344 C 386.445312 324.378906 384.851562 325.894531 383.296875 327.453125 C 381.738281 329.007812 380.222656 330.601562 378.742188 332.230469 C 377.265625 333.863281 375.828125 335.527344 374.429688 337.230469 C 373.035156 338.929688 371.679688 340.664062 370.371094 342.433594 C 369.058594 344.199219 367.789062 346 366.566406 347.828125 C 365.34375 349.65625 364.167969 351.515625 363.035156 353.402344 C 361.902344 355.289062 360.816406 357.203125 359.777344 359.144531 C 358.738281 361.085938 357.75 363.050781 356.808594 365.039062 C 355.863281 367.027344 354.972656 369.039062 354.128906 371.070312 C 353.285156 373.105469 352.492188 375.15625 351.75 377.226562 C 351.007812 379.300781 350.3125 381.386719 349.671875 383.492188 C 349.03125 385.597656 348.445312 387.71875 347.90625 389.851562 C 347.371094 391.988281 346.886719 394.132812 346.457031 396.292969 C 346.023438 398.449219 345.644531 400.617188 345.320312 402.792969 C 344.996094 404.972656 344.722656 407.15625 344.503906 409.34375 C 344.285156 411.535156 344.121094 413.726562 344.011719 415.925781 C 343.902344 418.125 343.84375 420.324219 343.839844 422.523438 L 343.839844 456.15625 C 343.84375 456.707031 343.871094 457.253906 343.925781 457.804688 C 343.980469 458.351562 344.0625 458.894531 344.171875 459.433594 C 344.28125 459.972656 344.414062 460.507812 344.574219 461.03125 C 344.738281 461.558594 344.921875 462.074219 345.132812 462.582031 C 345.34375 463.09375 345.582031 463.589844 345.839844 464.074219 C 346.101562 464.558594 346.382812 465.03125 346.691406 465.488281 C 346.996094 465.945312 347.324219 466.386719 347.671875 466.8125 C 348.023438 467.238281 348.390625 467.644531 348.78125 468.03125 C 349.167969 468.421875 349.578125 468.789062 350.003906 469.140625 C 350.425781 469.488281 350.867188 469.816406 351.324219 470.125 C 351.785156 470.429688 352.253906 470.710938 352.738281 470.972656 C 353.222656 471.230469 353.722656 471.46875 354.230469 471.679688 C 354.738281 471.890625 355.253906 472.078125 355.78125 472.238281 C 356.308594 472.398438 356.839844 472.53125 357.378906 472.640625 C 357.917969 472.75 358.460938 472.832031 359.011719 472.886719 C 359.558594 472.941406 360.105469 472.96875 360.65625 472.972656 L 505.105469 472.972656 C 505.105469 472.972656 494.359375 462.394531 449.613281 417.648438 Z M 449.613281 417.648438 " fill-opacity="1" fill-rule="nonzero"/></g></svg>