<svg xmlns="http://www.w3.org/2000/svg" xmlns:xlink="http://www.w3.org/1999/xlink" width="768" zoomAndPan="magnify" viewBox="0 0 576 576" height="768" preserveAspectRatio="xMidYMid meet" version="1.0"><defs><clipPath id="e444335c4d"><path d="M 288 0 L 343.90625 79.359375 L 432 38.585938 L 440.734375 135.265625 L 537.414062 144 L 496.640625 232.09375 L 576 288 L 496.640625 343.90625 L 537.414062 432 L 440.734375 440.734375 L 432 537.414062 L 343.90625 496.640625 L 288 576 L 232.09375 496.640625 L 144 537.414062 L 135.265625 440.734375 L 38.585938 432 L 79.359375 343.90625 L 0 288 L 79.359375 232.09375 L 38.585938 144 L 135.265625 135.265625 L 144 38.585938 L 232.09375 79.359375 Z M 288 0 " clip-rule="nonzero"/></clipPath><clipPath id="5fd3f95136"><path d="M 0 0 L 572.398438 0 L 572.398438 572.398438 L 0 572.398438 Z M 0 0 " clip-rule="nonzero"/></clipPath><clipPath id="848bd9e4a2"><path d="M 287.988281 0 L 343.890625 79.355469 L 431.980469 38.582031 L 440.714844 135.257812 L 537.390625 143.992188 L 496.617188 232.085938 L 575.976562 287.988281 L 496.617188 343.890625 L 537.390625 431.980469 L 440.714844 440.714844 L 431.980469 537.390625 L 343.890625 496.617188 L 287.988281 575.976562 L 232.085938 496.617188 L 143.992188 537.390625 L 135.257812 440.714844 L 38.582031 431.980469 L 79.355469 343.890625 L 0 287.988281 L 79.355469 232.085938 L 38.582031 143.992188 L 135.257812 135.257812 L 143.992188 38.582031 L 232.085938 79.355469 Z M 287.988281 0 " clip-rule="nonzero"/></clipPath><clipPath id="7a4ae06532"><path d="M 217 172 L 372.1875 172 L 372.1875 404 L 217 404 Z M 217 172 " clip-rule="nonzero"/></clipPath></defs><g clip-path="url(#e444335c4d)"><rect x="-57.6" width="691.2" fill="#f8e9a6" y="-57.6" height="691.2" fill-opacity="1"/></g><g clip-path="url(#5fd3f95136)"><g clip-path="url(#848bd9e4a2)"><path stroke-linecap="butt" transform="matrix(9.539965, 0, 0, 9.539965, -0.00000000000022851, 0.00002)" fill="none" stroke-linejoin="miter" d="M 30.187562 -0.00000209644 L 36.047368 8.318212 L 45.281139 4.044251 L 46.196695 14.178018 L 56.330462 15.093574 L 52.056501 24.327754 L 60.375124 30.18756 L 52.056501 36.047366 L 56.330462 45.281137 L 46.196695 46.196693 L 45.281139 56.33046 L 36.047368 52.056499 L 30.187562 60.375122 L 24.327756 52.056499 L 15.093576 56.33046 L 14.17802 46.196693 L 4.044253 45.281137 L 8.318214 36.047366 L 0.000000000000023953 30.18756 L 8.318214 24.327754 L 4.044253 15.093574 L 14.17802 14.178018 L 15.093576 4.044251 L 24.327756 8.318212 Z M 30.187562 -0.00000209644 " stroke="#004d29" stroke-width="3.930832" stroke-opacity="1" stroke-miterlimit="4"/></g></g><g clip-path="url(#7a4ae06532)"><path fill="#004d29" d="M 375.460938 289.808594 L 265.394531 178.617188 C 244.132812 157.136719 200.472656 196.867188 226.082031 221.859375 L 295.71875 289.808594 L 223.835938 356.636719 C 201.945312 376.988281 242.492188 418.75 264.269531 397.632812 Z M 375.460938 289.808594 " fill-opacity="1" fill-rule="nonzero"/></g></svg>