<svg xmlns="http://www.w3.org/2000/svg" xmlns:xlink="http://www.w3.org/1999/xlink" width="1366" zoomAndPan="magnify" viewBox="0 0 1024.5 557.249982" height="768" preserveAspectRatio="xMidYMid meet" version="1.0"><defs><clipPath id="5e5492a95e"><path d="M 289.453125 30.703125 L 734 30.703125 L 734 544.511719 L 289.453125 544.511719 Z M 289.453125 30.703125 " clip-rule="nonzero"/></clipPath></defs><g clip-path="url(#5e5492a95e)"><path fill="#000000" d="M 698.140625 86.332031 L 624.113281 86.332031 L 624.113281 75.757812 C 624.113281 50.957031 603.945312 30.78125 579.15625 30.78125 L 444.078125 30.78125 C 419.289062 30.78125 399.121094 50.957031 399.121094 75.757812 L 399.121094 86.332031 L 325.09375 86.332031 C 305.703125 86.332031 289.917969 102.117188 289.917969 121.515625 L 289.917969 138.195312 C 289.917969 156.355469 303.746094 171.34375 321.414062 173.191406 L 357.632812 491.160156 C 361.085938 521.527344 386.738281 544.425781 417.289062 544.425781 L 605.9375 544.425781 C 636.492188 544.425781 662.144531 521.527344 665.59375 491.160156 L 701.816406 173.191406 C 719.488281 171.347656 733.3125 156.355469 733.3125 138.195312 L 733.3125 121.515625 C 733.3125 102.117188 717.527344 86.332031 698.136719 86.332031 Z M 421.953125 75.757812 C 421.953125 63.546875 431.878906 53.617188 444.082031 53.617188 L 579.160156 53.617188 C 591.367188 53.617188 601.292969 63.546875 601.292969 75.757812 L 601.292969 86.332031 L 421.953125 86.332031 Z M 642.921875 488.574219 C 640.78125 507.398438 624.882812 521.589844 605.949219 521.589844 L 417.300781 521.589844 C 398.367188 521.589844 382.46875 507.398438 380.328125 488.574219 L 344.425781 173.386719 L 678.828125 173.386719 L 642.929688 488.574219 Z M 710.496094 138.195312 C 710.496094 145.007812 704.953125 150.550781 698.148438 150.550781 L 325.09375 150.550781 C 318.285156 150.550781 312.742188 145.007812 312.742188 138.195312 L 312.742188 121.515625 C 312.742188 114.710938 318.285156 109.167969 325.09375 109.167969 L 698.136719 109.167969 C 704.945312 109.167969 710.484375 114.710938 710.484375 121.515625 L 710.484375 138.195312 Z M 710.496094 138.195312 " fill-opacity="1" fill-rule="nonzero"/></g><path fill="#000000" d="M 511.617188 459.789062 C 517.917969 459.789062 523.03125 454.675781 523.03125 448.371094 L 523.03125 246.605469 C 523.03125 240.300781 517.917969 235.1875 511.617188 235.1875 C 505.316406 235.1875 500.203125 240.300781 500.203125 246.605469 L 500.203125 448.371094 C 500.203125 454.675781 505.316406 459.789062 511.617188 459.789062 Z M 511.617188 459.789062 " fill-opacity="1" fill-rule="nonzero"/><path fill="#000000" d="M 579.847656 459.257812 C 580.222656 459.300781 580.601562 459.316406 580.964844 459.316406 C 586.773438 459.316406 591.738281 454.910156 592.308594 449.003906 L 611.859375 248.1875 C 612.472656 241.90625 607.882812 236.324219 601.613281 235.710938 C 595.25 235.066406 589.753906 239.691406 589.144531 245.964844 L 569.589844 446.785156 C 568.980469 453.066406 573.570312 458.648438 579.839844 459.257812 Z M 579.847656 459.257812 " fill-opacity="1" fill-rule="nonzero"/><path fill="#000000" d="M 442.269531 459.316406 C 442.632812 459.316406 443.011719 459.300781 443.386719 459.257812 C 449.660156 458.652344 454.246094 453.066406 453.636719 446.785156 L 434.085938 245.964844 C 433.476562 239.691406 427.980469 235.074219 421.617188 235.710938 C 415.34375 236.316406 410.757812 241.90625 411.367188 248.1875 L 430.917969 449.003906 C 431.496094 454.902344 436.460938 459.316406 442.261719 459.316406 Z M 442.269531 459.316406 " fill-opacity="1" fill-rule="nonzero"/></svg>